<svg id="Слой_1" data-name="Слой 1" xmlns="http://www.w3.org/2000/svg" viewBox="0 0 21.48 28.7">
<style>
        .letter {
            fill: #252528;    
        }
        @media (prefers-color-scheme: dark) {
            .letter {
                fill: #fff;    
            }
        }
    </style>
<path class="letter" d="M5.46,1.05A2.21,2.21,0,0,1,7.37.15H16.5a9.47,9.47,0,0,1,8.33,4.61,10.3,10.3,0,0,1,1.31,5.42,10.77,10.77,0,0,1-1.31,5.22,8.19,8.19,0,0,1-3.61,3.32,11.34,11.34,0,0,1-4.82,1.1H9.88v-.5c0,1.5-.2,2.31-.7,2.81a2.45,2.45,0,0,1-1.81.7A2.52,2.52,0,0,1,5.46,22a2.22,2.22,0,0,1-.8-1.81V2.86A2.19,2.19,0,0,1,5.46,1.05ZM9.88,15H16.5a4,4,0,0,0,2.41-.7,4.88,4.88,0,0,0,1.71-1.81,4.66,4.66,0,0,0,.6-2.31,5.23,5.23,0,0,0-1.41-3.61,4.28,4.28,0,0,0-3.31-1.5H9.88Z" transform="translate(-4.66 -0.15)"/>
<path d="M9.88,26.24a2.66,2.66,0,0,1-2.61,2.61,2.59,2.59,0,0,1-2.61-2.61,2.66,2.66,0,0,1,2.61-2.61A2.66,2.66,0,0,1,9.88,26.24Z" transform="translate(-4.66 -0.15)" style="fill:#927ab6"/></svg>