<?xml version="1.0" standalone="no"?>
<!DOCTYPE svg PUBLIC "-//W3C//DTD SVG 20010904//EN"
 "http://www.w3.org/TR/2001/REC-SVG-20010904/DTD/svg10.dtd">
<svg version="1.0" xmlns="http://www.w3.org/2000/svg"
 width="928.000000pt" height="928.000000pt" viewBox="0 0 928.000000 928.000000"
 preserveAspectRatio="xMidYMid meet">
<metadata>
Created by potrace 1.14, written by Peter Selinger 2001-2017
</metadata>
<g transform="translate(0.000000,928.000000) scale(0.100000,-0.100000)"
fill="#000000" stroke="none">
<path d="M1890 9273 c-144 -25 -298 -106 -393 -207 -21 -23 -69 -72 -106 -111
-37 -38 -82 -91 -100 -117 -32 -47 -95 -178 -85 -178 2 0 0 -9 -6 -19 -5 -11
-13 -37 -17 -58 -10 -48 -11 -5907 -1 -5948 4 -16 9 -37 11 -45 2 -8 7 -28 12
-45 11 -40 61 -140 97 -193 31 -45 196 -212 209 -212 4 0 12 -6 16 -12 19 -30
198 -130 254 -142 13 -3 42 -10 64 -16 137 -36 359 -29 483 15 7 2 14 5 17 5
3 0 41 18 84 40 113 56 238 162 276 233 7 12 21 38 32 57 22 39 64 153 68 187
2 12 5 26 8 30 5 8 13 53 22 123 7 51 16 157 18 208 1 36 6 51 14 48 7 -3 15
-1 18 4 3 5 12 7 20 4 23 -9 78 -10 101 -3 11 4 27 4 34 -1 7 -4 26 -4 41 0
19 6 29 5 29 -2 0 -7 4 -7 13 1 8 6 16 8 19 6 9 -9 81 -12 104 -4 11 4 27 4
34 -1 7 -4 26 -4 41 0 19 6 29 5 29 -2 0 -7 4 -7 13 1 8 6 16 8 19 6 9 -9 81
-12 104 -4 11 4 27 4 34 -1 7 -4 26 -4 41 0 19 6 29 5 29 -2 0 -7 4 -7 13 1 8
6 16 8 19 6 9 -9 82 -11 105 -3 13 4 25 3 28 -3 4 -5 11 -7 16 -3 5 3 34 5 64
4 30 0 62 -1 70 0 27 0 45 1 110 1 36 0 72 0 80 0 8 0 44 0 80 0 36 0 72 0 80
0 8 0 44 0 80 0 36 0 72 0 80 0 8 0 44 0 80 0 36 0 72 0 80 0 8 0 44 0 80 0
36 0 72 0 80 0 8 0 44 0 80 0 36 0 73 -1 83 -1 120 -1 447 14 447 20 0 1 18 3
40 6 22 2 54 6 70 9 17 3 50 8 74 10 80 10 364 75 486 112 79 24 211 70 270
93 191 78 484 222 493 243 2 4 8 7 13 7 10 0 249 166 264 183 6 7 28 25 50 42
48 35 320 305 308 305 -4 0 -3 4 2 8 13 9 64 70 90 106 11 16 25 34 32 41 60
64 223 354 297 530 20 50 43 104 50 120 31 71 114 330 106 330 -1 0 4 14 10
30 14 37 62 256 75 340 1 11 6 43 10 70 3 28 8 60 10 71 20 128 29 741 12 889
-11 95 -23 182 -31 222 -6 30 -18 107 -17 115 0 4 -6 25 -14 47 -7 22 -11 42
-8 44 3 3 1 12 -3 19 -5 7 -10 22 -12 33 -7 46 -86 302 -108 352 -8 17 -14 33
-14 36 0 2 -8 22 -17 43 -9 22 -17 41 -18 44 -5 19 -46 109 -82 181 -24 48
-43 90 -43 93 0 4 -5 12 -10 19 -16 18 -80 128 -80 137 0 4 -9 15 -20 25 -11
10 -20 24 -20 32 0 7 -4 13 -10 13 -5 0 -10 6 -10 13 0 6 -13 26 -28 44 -15
18 -49 62 -77 99 -73 98 -114 144 -260 289 -127 127 -212 205 -222 205 -2 0
-12 8 -21 17 -41 40 -166 127 -378 260 -10 7 -35 20 -54 29 -19 10 -42 22 -50
29 -14 11 -173 85 -255 120 -22 9 -49 20 -60 25 -42 19 -330 111 -364 116 -20
3 -44 10 -53 15 -10 5 -18 8 -18 5 0 -2 -26 2 -57 9 -32 7 -78 16 -103 20 -25
3 -52 8 -60 10 -8 2 -40 7 -70 11 -30 3 -66 8 -80 12 -29 6 -3453 12 -3490 5z
m3328 -1596 c17 -4 44 -9 60 -12 15 -3 38 -8 52 -11 45 -9 165 -46 185 -57 11
-6 25 -12 31 -13 33 -6 226 -110 232 -126 2 -4 8 -8 14 -8 6 0 29 -15 52 -32
22 -18 47 -37 54 -43 29 -21 179 -173 212 -214 19 -24 40 -48 46 -55 46 -50
169 -244 206 -326 50 -110 75 -178 93 -245 9 -33 20 -71 26 -85 5 -14 11 -43
14 -65 3 -22 8 -53 11 -70 2 -16 7 -48 10 -70 4 -22 7 -110 7 -195 1 -139 -3
-199 -18 -280 -10 -54 -16 -85 -19 -95 -1 -5 -8 -30 -15 -55 -7 -25 -15 -52
-18 -60 -4 -8 -7 -17 -8 -20 -1 -3 -6 -20 -10 -37 -4 -18 -11 -33 -16 -33 -5
0 -9 -7 -9 -15 0 -32 -126 -262 -184 -336 -12 -15 -30 -39 -41 -55 -41 -59
-213 -223 -295 -283 -47 -33 -90 -66 -97 -71 -7 -6 -15 -10 -19 -10 -4 0 -15
-6 -23 -14 -38 -33 -247 -133 -294 -140 -7 -1 -16 -4 -22 -8 -11 -6 -121 -34
-170 -43 -99 -17 -263 -24 -287 -13 -10 5 -18 5 -18 1 0 -9 -137 -9 -146 0 -3
3 -17 2 -31 -4 -16 -6 -22 -6 -18 1 4 6 -2 7 -17 2 -13 -4 -43 -6 -68 -5 -25
1 -54 2 -65 3 -11 0 -67 -1 -123 -2 -57 -2 -106 0 -109 5 -2 4 -10 4 -16 0
-16 -10 -128 -10 -149 0 -10 4 -18 4 -18 0 0 -10 -103 -8 -119 1 -6 4 -11 4
-11 -1 0 -4 -60 -8 -134 -8 -74 0 -132 3 -129 7 2 5 -6 4 -19 0 -13 -4 -45 -6
-73 -5 -27 2 -61 3 -75 3 -40 -1 -234 0 -245 0 -5 1 -36 -1 -68 -2 -32 -2 -61
0 -64 4 -2 5 -10 5 -16 1 -16 -9 -128 -10 -149 -1 -9 5 -19 5 -21 1 -6 -9 -89
-9 -103 0 -6 3 -15 2 -22 -1 -6 -4 -29 -6 -52 -4 l-40 4 0 57 c0 98 -1 2748 0
2954 l0 198 1163 -4 c639 -2 1177 -7 1195 -10z"/>
<path d="M1920 1682 c-99 -13 -260 -69 -317 -109 -17 -13 -34 -23 -38 -23 -23
0 -152 -119 -219 -201 -29 -35 -102 -162 -110 -190 -4 -13 -11 -33 -17 -44
-26 -57 -46 -185 -44 -285 2 -119 8 -163 32 -235 9 -27 15 -51 14 -53 -6 -7
96 -183 133 -227 130 -158 294 -257 494 -299 61 -13 260 -15 309 -3 135 34
292 102 342 148 11 11 24 19 28 19 15 0 152 148 186 201 54 86 95 178 118 264
27 100 29 288 6 380 -69 269 -256 489 -505 595 -38 16 -79 31 -93 34 -13 2
-31 7 -39 10 -45 16 -216 27 -280 18z"/>
</g>
</svg>
