<svg width="13" height="15" viewBox="0 0 13 15" fill="none" xmlns="http://www.w3.org/2000/svg">
<path d="M11.0156 1.875H8.4375V1.40625C8.4375 0.62959 7.80791 0 7.03125 0H5.15625C4.37959 0 3.75 0.62959 3.75 1.40625V1.875H1.17188C0.524678 1.875 0 2.39968 0 3.04688V3.98438C0 4.24327 0.209854 4.45312 0.46875 4.45312H11.7188C11.9776 4.45312 12.1875 4.24327 12.1875 3.98438V3.04688C12.1875 2.39968 11.6628 1.875 11.0156 1.875ZM4.6875 1.40625C4.6875 1.14785 4.89785 0.9375 5.15625 0.9375H7.03125C7.28965 0.9375 7.5 1.14785 7.5 1.40625V1.875H4.6875V1.40625Z" fill="#C4C4C4"/>
<path d="M0.889398 5.39062C0.805756 5.39062 0.739105 5.46053 0.74309 5.54408L1.12981 13.6605C1.16555 14.4117 1.78254 15 2.5343 15H9.65285C10.4046 15 11.0216 14.4117 11.0573 13.6605L11.4441 5.54408C11.4481 5.46053 11.3814 5.39062 11.2978 5.39062H0.889398ZM7.96858 6.5625C7.96858 6.30352 8.17834 6.09375 8.43733 6.09375C8.69631 6.09375 8.90608 6.30352 8.90608 6.5625V12.6562C8.90608 12.9152 8.69631 13.125 8.43733 13.125C8.17834 13.125 7.96858 12.9152 7.96858 12.6562V6.5625ZM5.62483 6.5625C5.62483 6.30352 5.83459 6.09375 6.09358 6.09375C6.35256 6.09375 6.56233 6.30352 6.56233 6.5625V12.6562C6.56233 12.9152 6.35256 13.125 6.09358 13.125C5.83459 13.125 5.62483 12.9152 5.62483 12.6562V6.5625ZM3.28108 6.5625C3.28108 6.30352 3.49084 6.09375 3.74983 6.09375C4.00881 6.09375 4.21858 6.30352 4.21858 6.5625V12.6562C4.21858 12.9152 4.00881 13.125 3.74983 13.125C3.49084 13.125 3.28108 12.9152 3.28108 12.6562V6.5625Z" fill="#C4C4C4"/>
</svg>
