<svg width="15" height="14" viewBox="0 0 15 14" fill="none" xmlns="http://www.w3.org/2000/svg">
<path d="M9.23077 6.34615C9.23077 6.1899 9.17368 6.05469 9.05949 5.9405C8.94531 5.82632 8.8101 5.76923 8.65385 5.76923H6.34615C6.1899 5.76923 6.05469 5.82632 5.9405 5.9405C5.82632 6.05469 5.76923 6.1899 5.76923 6.34615C5.76923 6.5024 5.82632 6.63762 5.9405 6.7518C6.05469 6.86599 6.1899 6.92308 6.34615 6.92308H8.65385C8.8101 6.92308 8.94531 6.86599 9.05949 6.7518C9.17368 6.63762 9.23077 6.5024 9.23077 6.34615ZM14.4231 4.61538V13.2692C14.4231 13.4255 14.366 13.5607 14.2518 13.6749C14.1376 13.7891 14.0024 13.8462 13.8462 13.8462H1.15385C0.997596 13.8462 0.86238 13.7891 0.748197 13.6749C0.634014 13.5607 0.576923 13.4255 0.576923 13.2692V4.61538C0.576923 4.45913 0.634014 4.32392 0.748197 4.20974C0.86238 4.09555 0.997596 4.03846 1.15385 4.03846H13.8462C14.0024 4.03846 14.1376 4.09555 14.2518 4.20974C14.366 4.32392 14.4231 4.45913 14.4231 4.61538ZM15 0.576923V2.88462C15 3.04087 14.9429 3.17608 14.8287 3.29026C14.7145 3.40445 14.5793 3.46154 14.4231 3.46154H0.576923C0.420673 3.46154 0.285457 3.40445 0.171274 3.29026C0.0570913 3.17608 0 3.04087 0 2.88462V0.576923C0 0.420673 0.0570913 0.285457 0.171274 0.171274C0.285457 0.0570913 0.420673 0 0.576923 0H14.4231C14.5793 0 14.7145 0.0570913 14.8287 0.171274C14.9429 0.285457 15 0.420673 15 0.576923Z" fill="#E5E5E5"/>
</svg>
