<svg width="59" height="57" viewBox="0 0 59 57" fill="none" xmlns="http://www.w3.org/2000/svg">
<path d="M57.8551 21.6C57.4551 20.4 56.4551 19.6 55.2551 19.5L38.8551 18.1L32.3551 2.8C31.8551 1.7 30.7551 1 29.5551 1C28.3551 1 27.2551 1.7 26.7551 2.8L20.2551 18L3.75505 19.6C2.55505 19.7 1.55505 20.5 1.15505 21.7C0.755052 22.9 1.15505 24.1 2.05505 24.9L14.4551 35.8L10.8551 51.9C10.5551 53.1 11.0551 54.3 12.0551 55C12.5551 55.4 13.2551 55.6 13.8551 55.6C14.3551 55.6 14.9551 55.5 15.4551 55.2L29.6551 46.7L43.8551 55.2C44.8551 55.8 46.1551 55.8 47.1551 55.1C48.1551 54.4 48.5551 53.2 48.3551 52L44.6551 35.8L57.0551 24.9C57.9551 24.1 58.2551 22.8 57.8551 21.6Z" stroke="url(#paint0_linear_682_76)" stroke-miterlimit="10"/>
<defs>
<linearGradient id="paint0_linear_682_76" x1="5" y1="28" x2="55.5" y2="28" gradientUnits="userSpaceOnUse">
<stop stop-color="#B279F7"/>
<stop offset="0.0001" stop-color="#AE7CF7"/>
<stop offset="1" stop-color="#7FA1F8"/>
</linearGradient>
</defs>
</svg>
