<svg width="59" height="50" viewBox="0 0 59 50" fill="none" xmlns="http://www.w3.org/2000/svg">
<path d="M29.6 49.4C28.1 49.4 26.6 48.8 25.6 47.7L5.8 28.1C2.7 25 1 20.6 1 16.2C1 7.7 8 1 16.4 1C20.6 1 24.6 2.5 27.4 5.6L29.3 7.5L30.9 6C36.4 0.3 45.4 -0.5 51.9 4.3C58.8 9.6 60.1 19.5 54.8 26.4C54.4 27 54 27.4 53.5 27.9L33.6 47.7C32.4 48.8 31.1 49.4 29.6 49.4Z" stroke="url(#paint0_linear_682_95)" stroke-miterlimit="10"/>
<defs>
<linearGradient id="paint0_linear_682_95" x1="0.5" y1="25.1941" x2="58.5" y2="25.1941" gradientUnits="userSpaceOnUse">
<stop stop-color="#B279F7"/>
<stop offset="1" stop-color="#7FA1F8"/>
</linearGradient>
</defs>
</svg>
