<svg width="15" height="12" viewBox="0 0 15 12" fill="none" xmlns="http://www.w3.org/2000/svg">
<path d="M14.2518 11.0917H4.22137C3.80796 11.0917 3.4729 10.7566 3.4729 10.3432C3.4729 9.92979 3.80796 9.59473 4.22137 9.59473H14.2516C14.665 9.59473 15 9.92979 15 10.3432C15 10.7566 14.6652 11.0917 14.2518 11.0917Z" fill="#7FA1F8"/>
<path d="M14.2518 6.39342H4.22137C3.80796 6.39342 3.4729 6.05835 3.4729 5.64495C3.4729 5.23155 3.80796 4.89648 4.22137 4.89648H14.2516C14.665 4.89648 15 5.23155 15 5.64495C15.0003 6.05835 14.6652 6.39342 14.2518 6.39342Z" fill="#7FA1F8"/>
<path d="M14.2518 1.69615H4.22137C3.80796 1.69615 3.4729 1.36109 3.4729 0.947684C3.4729 0.534282 3.80796 0.199219 4.22137 0.199219H14.2516C14.665 0.199219 15 0.534282 15 0.947684C15 1.36109 14.6652 1.69615 14.2518 1.69615Z" fill="#7FA1F8"/>
<path d="M1.00519 2.01038C1.56034 2.01038 2.01038 1.56034 2.01038 1.00519C2.01038 0.450039 1.56034 0 1.00519 0C0.450039 0 0 0.450039 0 1.00519C0 1.56034 0.450039 2.01038 1.00519 2.01038Z" fill="#7FA1F8"/>
<path d="M1.00519 6.651C1.56034 6.651 2.01038 6.20096 2.01038 5.64581C2.01038 5.09066 1.56034 4.64062 1.00519 4.64062C0.450039 4.64062 0 5.09066 0 5.64581C0 6.20096 0.450039 6.651 1.00519 6.651Z" fill="#7FA1F8"/>
<path d="M1.00519 11.2907C1.56034 11.2907 2.01038 10.8406 2.01038 10.2855C2.01038 9.73031 1.56034 9.28027 1.00519 9.28027C0.450039 9.28027 0 9.73031 0 10.2855C0 10.8406 0.450039 11.2907 1.00519 11.2907Z" fill="#7FA1F8"/>
</svg>
