<svg width="15" height="15" viewBox="0 0 15 15" fill="none" xmlns="http://www.w3.org/2000/svg">
<path d="M5.49336 11.9008L4.73436 12.6546C4.07643 13.3067 3.00637 13.3073 2.34881 12.6546C2.03268 12.3409 1.85906 11.9243 1.85906 11.4814C1.85906 11.0385 2.03287 10.6217 2.34862 10.308L5.14236 7.53621C5.72136 6.96208 6.81054 6.11665 7.60442 6.90396C7.96873 7.26583 8.5571 7.2634 8.91879 6.89927C9.28066 6.53515 9.27841 5.94659 8.9141 5.58509C7.56467 4.24597 5.57023 4.49347 3.83324 6.21696L1.03931 8.98895C0.368999 9.65439 0 10.5394 0 11.4814C0 12.4234 0.368999 13.3082 1.0395 13.9736C1.72931 14.658 2.63512 15 3.5413 15C4.44768 15 5.35386 14.658 6.04405 13.9733L6.80361 13.2193C7.16773 12.8578 7.16979 12.2694 6.80792 11.9051C6.44661 11.5412 5.85767 11.5391 5.49336 11.9008ZM13.9601 1.13329C12.5107 -0.304832 10.4842 -0.382832 9.14248 0.948414L8.19635 1.8876C7.83204 2.24929 7.82979 2.83747 8.19167 3.20178C8.55354 3.56609 9.14191 3.56816 9.50622 3.20647L10.452 2.26785C11.147 1.57766 12.0572 1.86379 12.6508 2.45272C12.9673 2.76641 13.1411 3.18322 13.1411 3.62609C13.1411 4.06916 12.9671 4.48597 12.6512 4.79965L9.67047 7.75652C8.30754 9.10877 7.66817 8.47408 7.39536 8.20333C7.03104 7.84164 6.44286 7.84389 6.08098 8.20802C5.71911 8.57214 5.72136 9.1607 6.08567 9.5222C6.71136 10.1432 7.42554 10.4511 8.17423 10.4511C9.09091 10.4511 10.0592 9.98945 10.9798 9.07539L13.9605 6.11852C14.6306 5.45309 15 4.5679 15 3.62591C15 2.68428 14.6306 1.7991 13.9601 1.13329Z" fill="#7FA1F8"/>
</svg>
