<svg width="57" height="53" viewBox="0 0 57 53" fill="none" xmlns="http://www.w3.org/2000/svg">
<path d="M57 26.6388C57 22.9163 54.0918 20.9388 50.0204 20.9388H38.2714C39.0857 17.798 39.551 14.7735 39.551 12.2143C39.551 2.09388 36.7592 0 34.3163 0C32.6878 0 31.5245 0.116327 29.8959 1.16327C29.4306 1.39592 29.198 1.86122 29.0816 2.32653L27.3367 11.749C25.4755 16.751 21.2878 21.0551 17.449 23.9633V48.8571C18.7286 48.8571 19.7755 49.5551 21.2877 50.3694C23.149 51.3 25.1265 52.2306 27.3367 52.2306H43.9714C47.4612 52.2306 50.0204 49.4388 50.0204 46.9959C50.0204 46.5306 50.0204 46.0653 49.9041 45.7163C52.1143 44.902 53.5102 43.0408 53.5102 40.9469C53.5102 39.9 53.2775 38.9694 52.9286 38.2714C54.2082 37.3408 55.6041 35.8286 55.6041 33.9674C55.6041 33.0367 55.1388 31.8735 54.4408 31.0592C55.9531 29.8959 57 28.2673 57 26.6388ZM22.9163 47.2286C21.5204 46.5306 20.1245 45.8327 18.6122 45.4837L22.9163 47.2286Z" fill="url(#paint0_linear_682_43)"/>
<path d="M13.9592 52.3469H3.4898C1.51224 52.3469 0 50.8346 0 48.8571V24.4285C0 22.451 1.51224 20.9387 3.4898 20.9387H13.9592C15.9367 20.9387 17.449 22.451 17.449 24.4285V48.8571C17.449 50.8346 15.9367 52.3469 13.9592 52.3469ZM15.1224 23.9632V48.8571H17.449V23.9632" fill="url(#paint1_linear_682_43)"/>
<defs>
<linearGradient id="paint0_linear_682_43" x1="18.1429" y1="27.9378" x2="54.9201" y2="28.1791" gradientUnits="userSpaceOnUse">
<stop stop-color="#9C8BF8"/>
<stop offset="1" stop-color="#7FA1F8"/>
</linearGradient>
<linearGradient id="paint1_linear_682_43" x1="0.306123" y1="37.7387" x2="16.5317" y2="37.8168" gradientUnits="userSpaceOnUse">
<stop stop-color="#B279F7"/>
<stop offset="1" stop-color="#9C8BF8"/>
</linearGradient>
</defs>
</svg>
