<svg width="15" height="16" viewBox="0 0 15 16" fill="none" xmlns="http://www.w3.org/2000/svg">
<path d="M14.9598 6.21984C14.9062 6.16622 14.9062 6.1126 14.8525 6.05898L12.7078 3.91421C12.4933 3.69973 12.1716 3.69973 11.9571 3.91421C11.7426 4.12869 11.7426 4.4504 11.9571 4.66488L13.1903 5.89812H10.1877V4.28954V0.536193C10.1877 0.214477 9.97319 0 9.65147 0H0.536193C0.482574 0 0.375335 -5.19343e-08 0.321716 0.0536193C0.321716 0.0536193 0.321716 0.0536193 0.268097 0.0536193C0.268097 0.0536193 0.214477 0.0536193 0.214477 0.107239L0.160858 0.160858C0.107239 0.214477 0.0536193 0.268096 0.0536193 0.321716C0.0536193 0.321716 0.0536193 0.321716 0.0536193 0.375335C-5.19343e-08 0.428954 0 0.482574 0 0.536193V12.3324C0 12.5469 0.107239 12.7614 0.321716 12.815L5.14745 14.9598C5.20107 15.0134 5.30831 15.0134 5.36193 15.0134C5.46917 15.0134 5.57641 14.9598 5.63003 14.9062C5.79088 14.7989 5.89812 14.6381 5.89812 14.4772V12.8686H9.65147C9.97319 12.8686 10.1877 12.6542 10.1877 12.3324V6.97051H13.1903L11.9571 8.20375C11.7426 8.41823 11.7426 8.73995 11.9571 8.95442C12.0643 9.06166 12.2252 9.11528 12.3324 9.11528C12.4397 9.11528 12.6005 9.06166 12.7078 8.95442L14.8525 6.80965C14.9062 6.75603 14.9598 6.70241 14.9598 6.64879C15.0134 6.48794 15.0134 6.3807 14.9598 6.21984ZM3.75335 10.1877C3.75335 10.5094 3.53887 10.7239 3.21716 10.7239C2.89544 10.7239 2.68096 10.5094 2.68096 10.1877V8.0429C2.68096 7.72118 2.89544 7.5067 3.21716 7.5067C3.53887 7.5067 3.75335 7.72118 3.75335 8.0429V10.1877ZM9.11528 4.28954V11.7962H5.89812V2.68096C5.89812 2.46649 5.79088 2.25201 5.57641 2.19839L3.0563 1.07239H9.11528V4.28954Z" fill="#E5E5E5"/>
</svg>
