<svg width="57" height="55" viewBox="0 0 57 55" fill="none" xmlns="http://www.w3.org/2000/svg">
<path d="M56.8509 20.6391C56.4756 19.4849 55.4519 18.6678 54.2456 18.5586L37.7913 17.0648L31.2885 1.84042C30.8084 0.721905 29.716 0 28.5001 0C27.2841 0 26.1913 0.721905 25.7142 1.84042L19.2114 17.0648L2.75458 18.5586C1.54822 18.6699 0.526677 19.4871 0.149199 20.6391C-0.226105 21.7933 0.120497 23.0592 1.03288 23.8594L13.471 34.7658L9.8036 50.9182C9.53527 52.1059 9.99625 53.334 10.9817 54.0464C11.5114 54.4312 12.1337 54.6234 12.7582 54.6234C13.2948 54.6234 13.8319 54.4808 14.3116 54.1938L28.5001 45.7101L42.6859 54.1938C43.7266 54.8157 45.0352 54.7587 46.0185 54.0464C47.0039 53.334 47.4649 52.1059 47.1966 50.9182L43.5292 34.7658L55.9673 23.8594C56.8792 23.0592 57.2263 21.7959 56.8509 20.6391Z" fill="url(#paint0_linear_682_37)"/>
<defs>
<linearGradient id="paint0_linear_682_37" x1="7" y1="54.7764" x2="57" y2="54.7764" gradientUnits="userSpaceOnUse">
<stop stop-color="#B279F7"/>
<stop offset="1" stop-color="#7B9DF5"/>
</linearGradient>
</defs>
</svg>
