<svg width="20" height="14" viewBox="0 0 20 14" fill="none" xmlns="http://www.w3.org/2000/svg">
<path d="M18.75 0.625H18.1956C17.8675 0.625 17.5525 0.754375 17.3181 0.985L15.625 2.655V1.875C15.625 0.839375 14.785 0 13.75 0H1.875C0.84125 0 0 0.840625 0 1.875V6.2325V11.875C0 12.91 0.839375 13.75 1.875 13.75H13.75C14.785 13.75 15.625 12.91 15.625 11.875V11.1119L17.3181 12.7819C17.5525 13.0125 17.8675 13.1419 18.1956 13.1419H18.75C19.44 13.1419 20 12.5825 20 11.8919V1.875C20 1.18438 19.44 0.625 18.75 0.625ZM1.875 12.5C1.53 12.5 1.25 12.2194 1.25 11.875V1.875C1.25 1.52938 1.52938 1.25 1.875 1.25H13.75C14.0944 1.25 14.375 1.53 14.375 1.875V11.875C14.375 12.2194 14.0944 12.5 13.75 12.5H1.875ZM18.75 11.8919H18.1956H18.125L15.625 9.39188V9.375L15 8.75V5L18.125 1.875H18.1956H18.75V11.8919Z" fill="#7FA1F8"/>
</svg>
