<svg width="5" height="5" viewBox="0 0 5 5" fill="none" xmlns="http://www.w3.org/2000/svg">
<path d="M2.94219 2.50092L4.90838 0.534737C5.03054 0.412684 5.03054 0.214647 4.90838 0.0925944C4.78622 -0.0295627 4.5884 -0.0295627 4.46624 0.0925944L2.50005 2.05878L0.53376 0.0925944C0.411603 -0.0295627 0.213775 -0.0295627 0.0916179 0.0925944C-0.0305393 0.214647 -0.0305393 0.412684 0.0916179 0.534737L2.05791 2.50092L0.0916179 4.46711C-0.0305393 4.58916 -0.0305393 4.7872 0.0916179 4.90925C0.152696 4.97023 0.232745 5.00077 0.312689 5.00077C0.392633 5.00077 0.472681 4.97023 0.53376 4.90915L2.50005 2.94296L4.46624 4.90915C4.52732 4.97023 4.60737 5.00077 4.68731 5.00077C4.76726 5.00077 4.8473 4.97023 4.90838 4.90915C5.03054 4.7871 5.03054 4.58906 4.90838 4.46701L2.94219 2.50092Z" fill="black"/>
</svg>
