<svg width="20" height="16" viewBox="0 0 20 16" fill="none" xmlns="http://www.w3.org/2000/svg">
<path d="M18.2463 15.2818H1.75365C0.793312 15.2818 0 14.4885 0 13.5282V1.75365C0 0.793318 0.793312 0 1.75365 0H18.2463C19.2067 0 20 0.793318 20 1.75365V13.5282C20 14.4885 19.2067 15.2818 18.2463 15.2818ZM1.7119 1.12735C1.37787 1.12735 1.12734 1.37787 1.12734 1.7119V13.4864C1.12734 13.8205 1.37787 14.071 1.7119 14.071H18.2046C18.5386 14.071 18.7891 13.8205 18.7891 13.4864V1.7119C18.7891 1.37787 18.5386 1.12735 18.2046 1.12735H1.7119Z" fill="#7FA1F8"/>
<path d="M12.9449 6.97279C11.6505 6.97279 10.6484 5.92894 10.6484 4.67633C10.6484 3.42372 11.6923 2.37988 12.9449 2.37988C14.1975 2.37988 15.2413 3.42372 15.2413 4.67633C15.2413 5.92894 14.1975 6.97279 12.9449 6.97279ZM12.9449 3.42372C12.2768 3.42372 11.734 3.96652 11.734 4.63458C11.734 5.30264 12.2768 5.84544 12.9449 5.84544C13.6129 5.84544 14.1557 5.30264 14.1557 4.63458C14.1557 3.96652 13.6129 3.42372 12.9449 3.42372Z" fill="#7FA1F8"/>
<path d="M16.0761 15.0725L6.43102 6.01192L0.91953 11.1059L0.167969 10.3125L6.43102 4.50879L16.8277 14.2791L16.0761 15.0725Z" fill="#7FA1F8"/>
<path d="M19.0815 12.0669L15.8664 9.47822L13.1942 11.6912L12.4844 10.8143L15.8664 8.05859L19.7495 11.2319L19.0815 12.0669Z" fill="#7FA1F8"/>
</svg>