<svg width="57" height="57" viewBox="0 0 57 57" fill="none" xmlns="http://www.w3.org/2000/svg">
<path d="M28.5 57C44.2401 57 57 44.2401 57 28.5C57 12.7599 44.2401 0 28.5 0C12.7599 0 0 12.7599 0 28.5C0 44.2401 12.7599 57 28.5 57Z" fill="url(#paint0_linear_682_48)"/>
<path fill-rule="evenodd" clip-rule="evenodd" d="M37.9999 31.6666H41.1666C41.1666 38.6333 35.4666 44.3333 28.4999 44.3333C21.5333 44.3333 15.8333 38.6333 15.8333 31.6666H18.9999C18.9999 37.05 23.1166 41.1666 28.4999 41.1666C33.8833 41.1666 37.9999 37.05 37.9999 31.6666Z" fill="white"/>
<path d="M18.9999 25.3333C20.7488 25.3333 22.1666 23.9156 22.1666 22.1667C22.1666 20.4178 20.7488 19 18.9999 19C17.251 19 15.8333 20.4178 15.8333 22.1667C15.8333 23.9156 17.251 25.3333 18.9999 25.3333Z" fill="white"/>
<path d="M37.9999 25.3333C39.7488 25.3333 41.1666 23.9156 41.1666 22.1667C41.1666 20.4178 39.7488 19 37.9999 19C36.251 19 34.8333 20.4178 34.8333 22.1667C34.8333 23.9156 36.251 25.3333 37.9999 25.3333Z" fill="white"/>
<defs>
<linearGradient id="paint0_linear_682_48" x1="2.79985e-07" y1="29" x2="57" y2="29" gradientUnits="userSpaceOnUse">
<stop stop-color="#B279F7"/>
<stop offset="1" stop-color="#7FA1F8"/>
</linearGradient>
</defs>
</svg>
