<svg width="20" height="21" viewBox="0 0 20 21" fill="none" xmlns="http://www.w3.org/2000/svg">
<path d="M10 0C9.17891 0 8.38722 0.103842 7.63143 0.279672C7.47383 0.316457 7.33154 0.401287 7.22424 0.522438C7.11693 0.643589 7.04991 0.795078 7.03243 0.955969L6.86666 2.46721C6.81244 2.96244 6.52638 3.4006 6.09476 3.64997C5.66401 3.89884 5.14117 3.92641 4.68522 3.72625L3.29601 3.11504C3.14794 3.04988 2.98329 3.0323 2.82481 3.06472C2.66632 3.09715 2.52181 3.17798 2.41123 3.29606C1.33209 4.44655 0.50386 5.83966 0.0335101 7.39452C-0.0133415 7.54928 -0.0110134 7.71476 0.0401729 7.86814C0.0913592 8.02151 0.188881 8.15523 0.319284 8.25083L1.55086 9.15391C1.95302 9.44959 2.18953 9.91555 2.18953 10.414C2.18953 10.9126 1.95303 11.379 1.55086 11.674L0.319284 12.5761C0.188881 12.6717 0.0913592 12.8054 0.0401729 12.9588C-0.0110134 13.1121 -0.0133415 13.2776 0.0335101 13.4324C0.50381 14.9871 1.33138 16.3812 2.41123 17.5319C2.52193 17.6498 2.66649 17.7304 2.82498 17.7627C2.98346 17.7949 3.14804 17.7772 3.29601 17.7119L4.6842 17.1007C5.14037 16.9 5.66371 16.9289 6.09476 17.178C6.52638 17.4273 6.81244 17.8655 6.86666 18.3607L7.03243 19.872C7.05004 20.0325 7.11701 20.1837 7.2241 20.3046C7.3312 20.4256 7.47315 20.5103 7.63042 20.5472C8.38655 20.7237 9.17891 20.8279 10 20.8279C10.8211 20.8279 11.6128 20.7241 12.3686 20.5483C12.5262 20.5115 12.6685 20.4266 12.7758 20.3055C12.8831 20.1843 12.9501 20.0329 12.9676 19.872L13.1333 18.3607C13.1876 17.8655 13.4736 17.4273 13.9052 17.178C14.336 16.9291 14.8588 16.9005 15.3148 17.1007L16.704 17.7119C16.852 17.7772 17.0165 17.7949 17.175 17.7627C17.3335 17.7304 17.4781 17.6498 17.5888 17.5319C18.6679 16.3814 19.4961 14.9872 19.9665 13.4324C20.0133 13.2776 20.011 13.1121 19.9598 12.9588C19.9086 12.8054 19.8111 12.6717 19.6807 12.5761L18.4491 11.674C18.047 11.379 17.8105 10.9126 17.8105 10.414C17.8105 9.91529 18.047 9.44893 18.4491 9.15391L19.6807 8.25185C19.8111 8.15625 19.9086 8.02253 19.9598 7.86916C20.011 7.71578 20.0133 7.5503 19.9665 7.39554C19.4961 5.84068 18.6679 4.44655 17.5888 3.29606C17.4781 3.17815 17.3335 3.09751 17.175 3.06527C17.0165 3.03303 16.852 3.05077 16.704 3.11605L15.3148 3.72726C14.8588 3.92743 14.336 3.89884 13.9052 3.64997C13.4736 3.4006 13.1876 2.96244 13.1333 2.46721L12.9676 0.955969C12.95 0.795394 12.883 0.64423 12.7759 0.523294C12.6688 0.402357 12.5268 0.317598 12.3696 0.280689C11.6134 0.104221 10.8211 0 10 0ZM10 1.56209C10.5073 1.56209 10.9945 1.65315 11.4828 1.73905L11.5804 2.63705C11.6886 3.62582 12.2634 4.50526 13.1242 5.00257C13.9855 5.5002 15.0342 5.55742 15.9443 5.15715L16.7701 4.79408C17.4042 5.55554 17.9063 6.41562 18.2569 7.35791L17.5247 7.89488C16.723 8.48297 16.2484 9.41928 16.2484 10.414C16.2484 11.4086 16.723 12.345 17.5247 12.933L18.2569 13.47C17.9063 14.4123 17.4042 15.2724 16.7701 16.0338L15.9443 15.6708C15.0342 15.2705 13.9855 15.3277 13.1242 15.8254C12.2634 16.3227 11.6886 17.2021 11.5804 18.1909L11.4828 19.0889C10.9945 19.1745 10.5071 19.2658 10 19.2658C9.49268 19.2658 9.00551 19.1748 8.51723 19.0889L8.4196 18.1909C8.31135 17.2021 7.73657 16.3227 6.87581 15.8254C6.01449 15.3277 4.96584 15.2705 4.0557 15.6708L3.22991 16.0338C2.59566 15.2725 2.09369 14.4124 1.74307 13.47L2.4753 12.933C3.27698 12.345 3.75162 11.4086 3.75162 10.414C3.75162 9.41928 3.2766 8.48236 2.4753 7.89387L1.74307 7.3569C2.09389 6.41424 2.59643 5.55472 3.23092 4.79307L4.0557 5.15613C4.96584 5.5564 6.01449 5.5002 6.87581 5.00257C7.73657 4.50526 8.31135 3.62582 8.4196 2.63705L8.51723 1.73905C9.00546 1.65339 9.49293 1.56209 10 1.56209ZM10 6.24838C7.70866 6.24838 5.83441 8.12263 5.83441 10.414C5.83441 12.7053 7.70866 14.5795 10 14.5795C12.2913 14.5795 14.1656 12.7053 14.1656 10.414C14.1656 8.12263 12.2913 6.24838 10 6.24838ZM10 7.81047C11.4471 7.81047 12.6035 8.96684 12.6035 10.414C12.6035 11.8611 11.4471 13.0175 10 13.0175C8.55288 13.0175 7.39651 11.8611 7.39651 10.414C7.39651 8.96684 8.55288 7.81047 10 7.81047Z" fill="black"/>
</svg>
