<svg width="15" height="15" viewBox="0 0 15 15" fill="none" xmlns="http://www.w3.org/2000/svg">
<path d="M9.26331 2.50488L1.0101 10.7587C0.968576 10.8003 0.938595 10.8529 0.924318 10.9094L0.00952848 14.5812C-0.0178355 14.6917 0.0146444 14.8093 0.0953086 14.8899C0.156342 14.951 0.239505 14.9848 0.324571 14.9848C0.350626 14.9848 0.377277 14.9815 0.403213 14.975L4.07498 14.0601C4.13221 14.0458 4.1842 14.016 4.22572 13.9744L12.4796 5.72122L9.26331 2.50488Z" fill="#7FA1F8"/>
<path d="M14.5252 1.37901L13.6065 0.460295C12.9925 -0.153729 11.9223 -0.153134 11.309 0.460295L10.1836 1.58567L13.3998 4.80189L14.5252 3.67651C14.8319 3.36992 15.0009 2.96184 15.0009 2.52782C15.0009 2.09381 14.8319 1.68572 14.5252 1.37901Z" fill="#7FA1F8"/>
</svg>
