<svg width="41" height="41" viewBox="0 0 41 41" fill="none" xmlns="http://www.w3.org/2000/svg">
<path d="M9.08646 24.7768L7.65931 30.1046L2.4431 30.2149C0.884223 27.3236 0 24.0155 0 20.5C0 17.1006 0.826727 13.8949 2.29216 11.0723H2.29328L6.93717 11.9237L8.97147 16.5397C8.5457 17.781 8.31363 19.1135 8.31363 20.5C8.31379 22.0049 8.58638 23.4467 9.08646 24.7768Z" fill="#7FA1F8"/>
<path d="M40.6419 16.6704C40.8773 17.9105 41.0001 19.1912 41.0001 20.5001C41.0001 21.9677 40.8458 23.3994 40.5518 24.7803C39.5539 29.4795 36.9463 33.5829 33.334 36.4867L33.3329 36.4856L27.4837 36.1871L26.6558 31.0193C29.0527 29.6136 30.9259 27.4138 31.9126 24.7803H20.9507V16.6704H32.0726H40.6419Z" fill="#7FA1F8"/>
<path d="M33.3327 36.4855L33.3338 36.4866C29.8207 39.3104 25.358 41 20.4999 41C12.6931 41 5.90555 36.6364 2.44305 30.215L9.08641 24.7769C10.8176 29.3972 15.2747 32.6863 20.4999 32.6863C22.7459 32.6863 24.85 32.0791 26.6556 31.0192L33.3327 36.4855Z" fill="#7FA1F8"/>
<path d="M33.585 4.71948L26.9439 10.1565C25.0753 8.98845 22.8664 8.31371 20.5 8.31371C15.1564 8.31371 10.616 11.7536 8.97151 16.5397L2.29324 11.0722H2.29211C5.70392 4.49423 12.577 0 20.5 0C25.474 0 30.0347 1.77181 33.585 4.71948Z" fill="#7FA1F8"/>
</svg>
