
<svg width="14" height="15" viewBox="0 0 14 15" fill="none" xmlns="http://www.w3.org/2000/svg">
<path d="M12.8571 2.14286H9.64286V1.60714C9.64286 0.721071 8.92179 0 8.03571 0H5.89286C5.00679 0 4.28571 0.721071 4.28571 1.60714V2.14286H1.07143C0.480536 2.14286 0 2.62339 0 3.21429V3.75C0 4.04571 0.24 4.28571 0.535714 4.28571H13.3929C13.6886 4.28571 13.9286 4.04571 13.9286 3.75V3.21429C13.9286 2.62339 13.448 2.14286 12.8571 2.14286ZM5.35714 1.60714C5.35714 1.31196 5.59768 1.07143 5.89286 1.07143H8.03571C8.33089 1.07143 8.57143 1.31196 8.57143 1.60714V2.14286H5.35714V1.60714Z" fill="#7FA1F8"/>
<path d="M1.60693 5.35718V13.3929C1.60693 14.279 2.328 15 3.21408 15H10.7141C11.6001 15 12.3212 14.279 12.3212 13.3929V5.35718H1.60693ZM8.94997 10.8713C9.15943 11.0807 9.15943 11.4193 8.94997 11.6288C8.74051 11.8383 8.40193 11.8383 8.19247 11.6288L6.96408 10.4004L5.73568 11.6288C5.52622 11.8383 5.18765 11.8383 4.97818 11.6288C4.76872 11.4193 4.76872 11.0807 4.97818 10.8713L6.20658 9.64289L4.97818 8.4145C4.76872 8.20504 4.76872 7.86646 4.97818 7.657C5.18765 7.44753 5.52622 7.44753 5.73568 7.657L6.96408 8.88539L8.19247 7.657C8.40193 7.44753 8.74051 7.44753 8.94997 7.657C9.15943 7.86646 9.15943 8.20504 8.94997 8.4145L7.72158 9.64289L8.94997 10.8713Z" fill="#7FA1F8"/>
</svg>