<svg width="20" height="20" viewBox="0 0 20 20" fill="none" xmlns="http://www.w3.org/2000/svg">
<path d="M4.12443 19.7723C3.30875 19.7724 2.51136 19.5306 1.83311 19.0775C1.15486 18.6244 0.626205 17.9803 0.314013 17.2267C0.00182024 16.4732 -0.0798892 15.6439 0.079218 14.8439C0.238325 14.0439 0.631102 13.3091 1.20787 12.7323C1.78465 12.1555 2.51951 11.7627 3.31952 11.6036C4.11953 11.4445 4.94876 11.5262 5.70233 11.8384C6.4559 12.1506 7.09996 12.6793 7.55307 13.3575C8.00618 14.0358 8.24797 14.8332 8.24787 15.6488C8.24656 16.7421 7.81171 17.7901 7.0387 18.5631C6.26569 19.3361 5.21763 19.771 4.12443 19.7723ZM4.12443 13.0098C3.60245 13.0097 3.09216 13.1644 2.6581 13.4543C2.22404 13.7442 1.88571 14.1564 1.68589 14.6386C1.48606 15.1208 1.43373 15.6514 1.53551 16.1634C1.63728 16.6754 1.88859 17.1457 2.25765 17.5148C2.62671 17.8839 3.09695 18.1353 3.6089 18.2372C4.12084 18.3391 4.6515 18.2868 5.13376 18.0871C5.61601 17.8874 6.02821 17.5491 6.31822 17.1151C6.60823 16.6811 6.76302 16.1708 6.76302 15.6488C6.76223 14.9492 6.484 14.2785 5.98936 13.7838C5.49471 13.289 4.82403 13.0107 4.12443 13.0098Z" fill="#7FA1F8"/>
<path d="M15.8764 17.0506C15.0607 17.0507 14.2634 16.8089 13.5851 16.3558C12.9069 15.9028 12.3782 15.2587 12.066 14.5052C11.7538 13.7516 11.6721 12.9224 11.8311 12.1224C11.9902 11.3224 12.3829 10.5876 12.9597 10.0108C13.5364 9.43399 14.2712 9.04118 15.0712 8.88201C15.8711 8.72285 16.7004 8.80449 17.4539 9.1166C18.2075 9.42872 18.8516 9.9573 19.3048 10.6355C19.7579 11.3137 19.9998 12.111 19.9998 12.9267C19.9986 14.02 19.5639 15.0681 18.7908 15.8413C18.0178 16.6144 16.9697 17.0493 15.8764 17.0506ZM15.8764 10.2881C15.3544 10.288 14.8441 10.4427 14.41 10.7326C13.9759 11.0226 13.6376 11.4348 13.4378 11.917C13.238 12.3993 13.1857 12.9299 13.2875 13.4419C13.3893 13.9539 13.6407 14.4242 14.0098 14.7933C14.3789 15.1624 14.8492 15.4137 15.3612 15.5156C15.8731 15.6174 16.4038 15.5651 16.8861 15.3653C17.3683 15.1655 17.7805 14.8271 18.0704 14.3931C18.3604 13.959 18.5151 13.4487 18.515 12.9267C18.5142 12.2271 18.2359 11.5564 17.7413 11.0618C17.2466 10.5671 16.5759 10.2889 15.8764 10.2881Z" fill="#7FA1F8"/>
<path d="M7.50415 16.3918C7.30724 16.3918 7.1184 16.3136 6.97917 16.1743C6.83994 16.0351 6.76172 15.8463 6.76172 15.6494V3.40476C6.76172 3.23633 6.819 3.0729 6.92414 2.94132C7.02928 2.80973 7.17604 2.71781 7.34032 2.68065L19.092 0.0183014C19.2006 -0.00628423 19.3134 -0.00609679 19.422 0.0188499C19.5306 0.0437965 19.6322 0.0928625 19.7192 0.162411C19.8063 0.231959 19.8765 0.320206 19.9248 0.42061C19.9731 0.521014 19.9982 0.631 19.9982 0.742415V12.9266C19.9982 13.1235 19.92 13.3124 19.7808 13.4516C19.6415 13.5908 19.4527 13.6691 19.2558 13.6691C19.0589 13.6691 18.87 13.5908 18.7308 13.4516C18.5916 13.3124 18.5134 13.1235 18.5134 12.9266V1.67193L8.24657 3.99821V15.6494C8.24657 15.8463 8.16835 16.0351 8.02912 16.1743C7.88989 16.3136 7.70105 16.3918 7.50415 16.3918Z" fill="#7FA1F8"/>
<path d="M7.50386 7.52859C7.32089 7.529 7.14422 7.46184 7.00774 7.33998C6.87125 7.21813 6.78457 7.05016 6.76433 6.86832C6.74408 6.68648 6.7917 6.50356 6.89804 6.35467C7.00437 6.20578 7.16195 6.1014 7.34052 6.06156L19.0922 3.39922C19.2842 3.3557 19.4857 3.39026 19.6522 3.49529C19.8188 3.60031 19.9368 3.76721 19.9803 3.95926C20.0239 4.1513 19.9893 4.35277 19.8843 4.51934C19.7793 4.68591 19.6124 4.80393 19.4203 4.84744L7.66868 7.50979C7.61463 7.52231 7.55933 7.52862 7.50386 7.52859Z" fill="#7FA1F8"/>
</svg>
