<svg width="19" height="19" viewBox="0 0 19 19" fill="none" xmlns="http://www.w3.org/2000/svg">
<path d="M17.4993 3.35669C16.6408 2.49818 15.4994 2.02541 14.2853 2.02541C13.0711 2.02541 11.9297 2.49822 11.0711 3.35669L5.28556 9.14226C4.2222 10.2056 4.2222 11.9358 5.2856 12.9992C6.349 14.0626 8.07922 14.0625 9.14258 12.9991L12.4811 9.66064C12.8361 9.30563 12.8361 8.73 12.4811 8.37499C12.126 8.01998 11.5504 8.01998 11.1954 8.37499L7.85693 11.7135C7.50244 12.068 6.92566 12.0679 6.57125 11.7136C6.2168 11.3591 6.21675 10.7824 6.5712 10.4279L12.3568 4.64234C12.8719 4.12722 13.5568 3.84356 14.2853 3.84356C15.0138 3.84356 15.6986 4.12722 16.2137 4.64229C17.2771 5.70569 17.2771 7.43587 16.2138 8.49923L9.78553 14.9275C8.01319 16.6997 5.12948 16.6998 3.35726 14.9276C2.49875 14.0691 2.02585 12.9276 2.02589 11.7135C2.02585 10.4994 2.49871 9.35791 3.35726 8.49935L9.78544 2.071C10.1405 1.71595 10.1405 1.14037 9.78544 0.785358C9.43043 0.430348 8.85481 0.430348 8.4998 0.785358L2.07162 7.21371C0.869627 8.41562 0.207691 10.0137 0.207648 11.7135C0.207649 13.4133 0.869584 15.0114 2.07158 16.2133C4.55266 18.6943 8.58984 18.6943 11.0711 16.2133L17.4994 9.78492C19.2716 8.01265 19.2715 5.12895 17.4993 3.35669Z" fill="#7FA1F8"/>
</svg>
