<svg width="59" height="54" viewBox="0 0 59 54" fill="none" xmlns="http://www.w3.org/2000/svg">
<path d="M58.2 27.6C58.2 23.9 55.3 21.9 51.2 21.9H39.4C40.2 18.8 40.7 15.7 40.7 13.2C40.7 3.1 37.9 1 35.5 1C33.9 1 32.6999 1.1 31.0999 2.2C30.5999 2.4 30.3999 2.9 30.2999 3.4L28.6 12.8C26.7 17.8 22.6 22.1 18.7 25V49.9C20 49.9 21 50.6 22.5 51.4C24.4 52.3 26.3 53.3 28.5 53.3H45.0999C48.5999 53.3 51.0999 50.5 51.0999 48.1C51.0999 47.6 51.1 47.2 51 46.8C53.2 46 54.5999 44.1 54.5999 42C54.5999 41 54.4 40 54 39.3C55.3 38.4 56.7 36.9 56.7 35C56.7 34.1 56.2 32.9 55.5 32.1C57.1 30.9 58.2 29.3 58.2 27.6Z" stroke="url(#paint0_linear_0_1)" stroke-miterlimit="10"/>
<path d="M15.1 53.3H4.69995C2.69995 53.3 1.19995 51.8 1.19995 49.8V25.4C1.19995 23.4 2.69995 21.9 4.69995 21.9H15.2C17.2 21.9 18.7 23.4 18.7 25.4V49.8C18.6 51.8 17.1 53.3 15.1 53.3Z" stroke="url(#paint1_linear_0_1)" stroke-miterlimit="10"/>
<defs>
<linearGradient id="paint0_linear_0_1" x1="18.107" y1="27.0242" x2="58.6755" y2="27.2904" gradientUnits="userSpaceOnUse">
<stop stop-color="#9C8BF8"/>
<stop offset="1" stop-color="#7FA1F8"/>
</linearGradient>
<linearGradient id="paint1_linear_0_1" x1="0.614451" y1="37.5981" x2="19.1808" y2="37.6875" gradientUnits="userSpaceOnUse">
<stop stop-color="#B279F7"/>
<stop offset="1" stop-color="#9C8BF8"/>
</linearGradient>
</defs>
</svg>
