<svg width="57" height="49" viewBox="0 0 57 49" fill="none" xmlns="http://www.w3.org/2000/svg">
<path d="M28.5757 48.3882C27.0517 48.3882 25.5276 47.8167 24.5751 46.6736L4.76262 27.0517C1.71454 24.0036 0 19.622 0 15.2404C0 6.66766 7.04867 0 15.4309 0C19.622 0 23.6226 1.52404 26.4802 4.57211L28.3852 6.47716L29.9092 4.95312C35.4339 -0.762019 44.3876 -1.52404 50.8648 3.23858C57.7229 8.57271 59.0565 18.479 53.7223 25.3371C53.3413 25.9086 52.9603 26.2896 52.3888 26.8612L32.5763 46.6736C31.4333 47.8167 30.0997 48.3882 28.5757 48.3882Z" fill="url(#paint0_linear_682_47)"/>
<defs>
<linearGradient id="paint0_linear_682_47" x1="1.5" y1="22" x2="55.5" y2="22" gradientUnits="userSpaceOnUse">
<stop stop-color="#B279F7"/>
<stop offset="1" stop-color="#7FA1F8"/>
</linearGradient>
</defs>
</svg>
