<svg width="197" height="20" viewBox="0 0 197 20" fill="none" xmlns="http://www.w3.org/2000/svg">
<g clip-path="url(#clip0_667_256)">
<path d="M0.522102 0.598552C0.870171 0.208716 1.3157 0.00683594 1.86565 0.00683594H8.19353C9.41873 0.00683594 10.5395 0.278329 11.5628 0.814354C12.5861 1.35038 13.4076 2.15094 14.0272 3.19514C14.6467 4.24631 14.96 5.49935 14.96 6.96124C14.96 8.34655 14.6467 9.55783 14.0272 10.5742C13.4076 11.5975 12.5792 12.3702 11.5489 12.8993C10.5186 13.4283 9.39784 13.6929 8.19353 13.6929H3.61295V13.317C3.61991 14.3681 3.44588 14.932 3.11869 15.2731C2.79151 15.6142 2.36686 15.7813 1.85868 15.7813C1.36443 15.7813 0.932823 15.6073 0.556909 15.2592C0.187957 14.925 0 14.4656 0 13.9017V1.90033C0 1.42695 0.174034 0.99535 0.522102 0.598552ZM3.61295 10.2818H8.18657C8.7922 10.2818 9.34215 10.1287 9.84337 9.8154C10.3446 9.50214 10.7414 9.09142 11.0338 8.58324C11.3261 8.07506 11.4723 7.53207 11.4723 6.9682C11.4723 6.00057 11.1521 5.17217 10.5117 4.48995C9.87122 3.80774 9.0985 3.45967 8.18657 3.45967H3.61295V10.2818Z" fill="#252528"/>
<path d="M63.4375 1.67073C63.4375 1.21128 63.6046 0.821441 63.9457 0.494257C64.2868 0.167073 64.6905 0 65.1639 0C65.6025 0 65.9784 0.167073 66.2986 0.494257C66.6188 0.821441 66.779 1.21824 66.779 1.67073V16.4149H70.2388C70.8792 16.4149 71.3735 16.5959 71.7285 16.9509C72.0835 17.306 72.2645 17.7306 72.2645 18.2249C72.2645 18.7191 72.0835 19.1368 71.7285 19.4849C71.3735 19.8329 70.8722 20.007 70.2388 20.007H65.1639C64.6697 20.007 64.2589 19.8538 63.9318 19.5406C63.6046 19.2273 63.4375 18.8305 63.4375 18.3362V1.67073Z" fill="#252528"/>
<path d="M59.3745 5.76441C59.3745 6.74596 58.5809 7.53955 57.5994 7.53955C56.6178 7.53955 55.8242 6.74596 55.8242 5.76441C55.8242 4.78285 56.6178 3.98926 57.5994 3.98926C58.5809 3.98926 59.3745 4.78285 59.3745 5.76441Z" fill="#839DD1"/>
<path d="M3.62772 18.1274C3.62772 19.1298 2.81324 19.9373 1.81777 19.9373C0.815331 19.9373 0.0078125 19.1229 0.0078125 18.1274C0.0078125 17.1249 0.822292 16.3174 1.81777 16.3174C2.81324 16.3105 3.62772 17.1249 3.62772 18.1274Z" fill="#927AB6"/>
<path d="M75.8433 19.4429C75.1541 20.1321 74.0264 20.1321 73.3372 19.4429C72.648 18.7537 72.648 17.626 73.3372 16.9368C74.0264 16.2476 75.1541 16.2476 75.8433 16.9368C76.5394 17.6329 76.5394 18.7537 75.8433 19.4429Z" fill="#7BC5EF"/>
<path d="M37.062 7.76929C37.062 8.75084 36.2684 9.54444 35.2869 9.54444C34.3053 9.54444 33.5117 8.75084 33.5117 7.76929C33.5117 6.78774 34.3053 5.99414 35.2869 5.99414C36.2684 5.99414 37.062 6.78774 37.062 7.76929Z" fill="#7372B3"/>
<path d="M37.1805 11.8132C37.1805 11.7923 37.1875 11.7714 37.1945 11.7505C37.1875 11.7505 37.1805 11.7505 37.1805 11.7505C37.1388 10.8456 36.5471 9.96146 35.3775 9.98235C34.2916 9.96842 33.6999 10.7203 33.5885 11.5556C33.4423 12.3074 33.1708 12.9827 32.7879 13.5814C32.1544 14.556 31.3469 15.3008 30.3514 15.802C29.356 16.3033 28.3118 16.5539 27.2119 16.5539C26.1537 16.5539 25.1304 16.3033 24.1419 15.802C23.1534 15.3008 22.3528 14.5629 21.7333 13.5814C21.1137 12.6068 20.8004 11.4303 20.8004 10.0589C20.8004 8.68753 21.1137 7.51106 21.7333 6.52255C22.3528 5.53403 23.1604 4.79613 24.1419 4.30187C25.1304 3.80762 26.1537 3.56397 27.2119 3.56397C28.3048 3.56397 29.356 3.80762 30.3514 4.30187C30.9501 4.60121 31.4861 4.98409 31.9526 5.46442H31.9665C32.2589 5.79857 32.6905 6.01437 33.2613 6.00741C35.0712 6.03525 35.4611 3.81458 34.4308 2.86783C34.4238 2.86087 34.4099 2.85391 34.403 2.84695C34.3681 2.8191 34.3403 2.78429 34.3055 2.76341C33.6999 2.19954 33.0246 1.71921 32.2797 1.32937C30.783 0.542736 29.1959 0.10417 27.5112 0.0136719C25.7569 0.0136719 24.0932 0.396547 22.5129 1.1623C20.9327 1.92805 19.6518 3.06971 18.6633 4.58729C17.6748 6.10487 17.1875 7.92874 17.1875 10.0659C17.1875 12.203 17.6818 14.0269 18.6633 15.5445C19.6518 17.0621 20.9327 18.1898 22.5129 18.9277C24.0932 19.6656 25.7569 19.9997 27.5112 19.9301C29.175 19.9301 30.7552 19.5473 32.2519 18.7815C33.7486 18.0158 34.9668 16.888 35.9066 15.3983C36.4287 14.5699 36.8046 13.651 37.0343 12.6416C37.1318 12.3771 37.1805 12.0986 37.1805 11.8132Z" fill="#252528"/>
<path d="M60.1794 9.4325C60.1794 9.41162 60.1794 9.39073 60.1724 9.36985C60.1654 9.36985 60.1585 9.36985 60.1585 9.37681C59.9079 8.49968 59.1212 7.78962 57.9935 8.07504C56.9354 8.31172 56.5316 9.18885 56.6221 10.0242C56.6499 10.79 56.5525 11.507 56.3158 12.1822C55.9329 13.2821 55.3134 14.1871 54.4641 14.9111C53.6148 15.6351 52.6541 16.1224 51.589 16.3799C50.5587 16.6306 49.5076 16.6236 48.4286 16.366C47.3565 16.1085 46.3958 15.5794 45.5674 14.7719C44.7321 13.9643 44.1613 12.8993 43.841 11.5696C43.5208 10.24 43.5487 9.02178 43.9176 7.91492C44.2935 6.80807 44.8992 5.90309 45.7415 5.19303C46.5838 4.48297 47.5236 4.00264 48.5539 3.75899C49.619 3.50142 50.691 3.50142 51.777 3.74507C52.4314 3.89126 53.037 4.14186 53.6009 4.49689L53.6078 4.48993C53.9698 4.7475 54.4362 4.85889 54.9931 4.7127C56.7613 4.3159 56.6151 2.06738 55.3969 1.38516C55.3899 1.3782 55.376 1.37124 55.3691 1.37124C55.3342 1.35036 55.2994 1.32947 55.2577 1.30859C54.5337 0.897869 53.7679 0.591569 52.9535 0.382728C51.3106 -0.0279929 49.6677 -0.0836838 48.0109 0.215655C46.3054 0.626375 44.7739 1.38516 43.4164 2.49898C42.0589 3.6128 41.0774 5.02596 40.4717 6.72453C39.8661 8.43007 39.8104 10.3166 40.3116 12.398C40.8128 14.4725 41.7178 16.1363 43.0265 17.3824C44.3422 18.6285 45.8529 19.4221 47.5584 19.7701C49.2639 20.1182 50.9625 20.0555 52.6541 19.5752C54.2692 19.1854 55.7171 18.4475 56.9911 17.3476C58.265 16.2546 59.1908 14.8693 59.7547 13.2056C60.068 12.2797 60.2142 11.2981 60.2072 10.2609C60.2629 9.98941 60.249 9.704 60.1794 9.4325Z" fill="#252528"/>
<path d="M92.943 16.8672C93.1309 16.8672 93.298 16.9368 93.4303 17.0691C93.5625 17.2014 93.6321 17.3615 93.6321 17.5564C93.6321 17.7374 93.5764 17.8906 93.4651 18.0089C92.6436 18.6493 91.7665 19.1366 90.8406 19.4708C89.9148 19.8049 88.9402 19.972 87.9099 19.972C86.7125 19.972 85.5918 19.7492 84.5406 19.2968C83.4894 18.8512 82.5357 18.2108 81.6725 17.3893C80.8511 16.5331 80.2106 15.5724 79.7651 14.5213C79.3196 13.4701 79.0898 12.3493 79.0898 11.152C79.0898 8.72244 79.9461 6.64099 81.6655 4.92849C83.392 3.20208 85.4734 2.33887 87.9029 2.33887C89.9983 2.33887 91.857 3.00716 93.4929 4.34374C93.6252 4.47601 93.6878 4.63612 93.6878 4.83104C93.6878 5.01203 93.6252 5.17214 93.4929 5.30441C93.3606 5.43667 93.2005 5.49933 93.0195 5.49933C92.8316 5.49933 92.6436 5.40883 92.4557 5.23479C91.1817 4.20451 89.6642 3.68937 87.9029 3.68937C85.8424 3.68937 84.0881 4.42032 82.6262 5.8822C81.1713 7.33713 80.4473 9.09139 80.4473 11.152C80.4473 13.2195 81.1713 14.9737 82.6262 16.4287C84.0811 17.8836 85.8424 18.6076 87.9029 18.6076C89.6781 18.6076 91.2374 18.0576 92.574 16.9647C92.6715 16.902 92.7968 16.8672 92.943 16.8672Z" fill="#252528"/>
<path d="M113.035 11.1451C113.035 13.5746 112.171 15.6561 110.445 17.3825C108.733 19.102 106.658 19.9652 104.215 19.9652C103.017 19.9652 101.896 19.7424 100.845 19.2899C99.7941 18.8374 98.8404 18.2039 97.9772 17.3825C97.1558 16.5263 96.5153 15.5656 96.0698 14.5144C95.6243 13.4633 95.3945 12.3425 95.3945 11.1451C95.3945 8.7156 96.2508 6.63415 97.9702 4.92166C99.6967 3.19524 101.778 2.33203 104.208 2.33203C106.651 2.33203 108.733 3.19524 110.438 4.92166C112.171 6.64112 113.035 8.7156 113.035 11.1451ZM104.215 3.6895C102.175 3.6895 100.414 4.42044 98.9379 5.88233C97.4829 7.33725 96.759 9.09152 96.759 11.1521C96.759 13.2196 97.4829 14.9739 98.9379 16.4288C100.4 17.8837 102.161 18.6077 104.215 18.6077C106.268 18.6077 108.029 17.8837 109.484 16.4288C110.946 14.9739 111.677 13.2126 111.677 11.1521C111.677 9.09848 110.946 7.33725 109.484 5.88233C108.022 4.42044 106.268 3.6895 104.215 3.6895Z" fill="#252528"/>
<path d="M116.153 5.88245V19.2831C116.153 19.471 116.091 19.6381 115.959 19.7704C115.833 19.9026 115.673 19.9723 115.478 19.9723C115.283 19.9723 115.123 19.9096 114.991 19.7704C114.859 19.6381 114.789 19.478 114.789 19.2831V3.01437C114.789 2.82641 114.852 2.65934 114.991 2.52708C115.123 2.39481 115.283 2.3252 115.478 2.3252C115.75 2.3252 115.945 2.44354 116.07 2.68022L123.609 17.7655L131.155 2.68022C131.287 2.44354 131.489 2.3252 131.761 2.3252C131.949 2.3252 132.109 2.39481 132.241 2.52708C132.367 2.65934 132.436 2.81945 132.436 3.01437V19.2831C132.436 19.471 132.373 19.6381 132.241 19.7704C132.109 19.9026 131.949 19.9723 131.761 19.9723C131.573 19.9723 131.406 19.9096 131.274 19.7704C131.141 19.6381 131.072 19.478 131.072 19.2831V5.88245L124.194 19.6451C124.062 19.8609 123.867 19.9653 123.609 19.9653C123.317 19.9653 123.108 19.8191 122.983 19.5337L116.153 5.88245Z" fill="#252528"/>
<path d="M135.548 5.88245V19.2831C135.548 19.471 135.485 19.6381 135.353 19.7704C135.221 19.9026 135.061 19.9723 134.873 19.9723C134.685 19.9723 134.518 19.9096 134.385 19.7704C134.253 19.6381 134.184 19.478 134.184 19.2831V3.01437C134.184 2.82641 134.246 2.65934 134.385 2.52708C134.518 2.39481 134.678 2.3252 134.873 2.3252C135.144 2.3252 135.346 2.44354 135.471 2.68022L143.011 17.7655L150.55 2.68022C150.682 2.44354 150.884 2.3252 151.155 2.3252C151.343 2.3252 151.503 2.39481 151.636 2.52708C151.761 2.65934 151.831 2.81945 151.831 3.01437V19.2831C151.831 19.471 151.768 19.6381 151.636 19.7704C151.51 19.9026 151.35 19.9723 151.155 19.9723C150.961 19.9723 150.8 19.9096 150.668 19.7704C150.536 19.6381 150.473 19.478 150.473 19.2831V5.88245L143.595 19.6451C143.463 19.8609 143.268 19.9653 143.011 19.9653C142.718 19.9653 142.509 19.8191 142.384 19.5337L135.548 5.88245Z" fill="#252528"/>
<path d="M165.132 2.33216C165.313 2.33216 165.473 2.40177 165.605 2.53404C165.737 2.6663 165.807 2.82641 165.807 3.02133C165.807 3.20233 165.744 3.36244 165.605 3.4947C165.473 3.62697 165.313 3.69658 165.132 3.69658H154.947V10.477H162.41C162.598 10.477 162.765 10.5396 162.897 10.6788C163.029 10.8111 163.099 10.9712 163.099 11.1661C163.099 11.361 163.029 11.5212 162.897 11.6534C162.765 11.7857 162.605 11.8483 162.41 11.8483H154.947V18.6287H165.132C165.313 18.6287 165.473 18.6914 165.605 18.8306C165.737 18.9629 165.807 19.123 165.807 19.304C165.807 19.4919 165.744 19.659 165.605 19.7913C165.473 19.9235 165.313 19.9931 165.132 19.9931H154.279C154.091 19.9931 153.924 19.9305 153.792 19.7913C153.659 19.659 153.59 19.4989 153.59 19.304V3.01437C153.59 2.82641 153.652 2.65934 153.792 2.52708C153.924 2.39481 154.084 2.3252 154.279 2.3252H165.132V2.33216Z" fill="#252528"/>
<path d="M169.052 19.2831C169.052 19.471 168.989 19.6381 168.857 19.7704C168.725 19.9026 168.565 19.9723 168.377 19.9723C168.189 19.9723 168.022 19.9096 167.889 19.7704C167.757 19.6381 167.688 19.478 167.688 19.2831V3.01437C167.688 2.82641 167.75 2.65934 167.889 2.52708C168.022 2.39481 168.182 2.3252 168.377 2.3252C168.592 2.3252 168.76 2.40873 168.892 2.56884L180.357 17.3061V3.01437C180.357 2.82641 180.42 2.65934 180.559 2.52708C180.691 2.39481 180.851 2.3252 181.046 2.3252C181.227 2.3252 181.387 2.39481 181.52 2.52708C181.652 2.65934 181.722 2.81945 181.722 3.01437V19.2831C181.722 19.471 181.659 19.6381 181.52 19.7704C181.387 19.9026 181.227 19.9723 181.046 19.9723C180.824 19.9723 180.657 19.9096 180.538 19.7704L169.052 5.00532V19.2831Z" fill="#252528"/>
<path d="M184.253 3.68962C184.072 3.68962 183.912 3.62001 183.78 3.48774C183.648 3.35548 183.578 3.19537 183.578 3.01437C183.578 2.82641 183.641 2.65934 183.78 2.52708C183.912 2.39481 184.072 2.3252 184.253 2.3252H196.011C196.199 2.3252 196.366 2.39481 196.498 2.52708C196.631 2.65934 196.693 2.81945 196.693 3.01437C196.693 3.19537 196.631 3.35548 196.498 3.48774C196.366 3.62001 196.206 3.68962 196.011 3.68962H190.811V19.2831C190.811 19.471 190.748 19.6381 190.616 19.7704C190.491 19.9026 190.331 19.9723 190.136 19.9723C189.941 19.9723 189.781 19.9096 189.648 19.7704C189.516 19.6381 189.447 19.478 189.447 19.2831V3.68962H184.253Z" fill="#252528"/>
</g>
<defs>
<clipPath id="clip0_667_256">
<rect width="196.693" height="20" fill="white"/>
</clipPath>
</defs>
</svg>
