<svg width="111" height="29" viewBox="0 0 111 29" fill="none" xmlns="http://www.w3.org/2000/svg">
<path d="M0.75 0.869989C1.25 0.309989 1.89 0.019989 2.68 0.019989H11.76C13.52 0.019989 15.13 0.409989 16.6 1.17999C18.07 1.94999 19.25 3.08999 20.14 4.59999C21.03 6.10999 21.48 7.90999 21.48 10.01C21.48 12 21.03 13.73 20.14 15.2C19.25 16.67 18.06 17.78 16.58 18.54C15.1 19.3 13.49 19.68 11.76 19.68H5.2V19.14C5.21 20.64 4.96 21.46 4.49 21.94C4.02 22.43 3.41 22.67 2.68 22.67C1.97 22.67 1.35 22.42 0.81 21.92C0.27 21.42 0 20.77 0 19.95V2.73999C0.01 2.05999 0.25 1.42999 0.75 0.869989ZM5.2 14.77H11.77C12.63 14.77 13.43 14.55 14.15 14.1C14.87 13.65 15.44 13.07 15.86 12.33C16.28 11.6 16.49 10.82 16.49 10.01C16.49 8.61999 16.03 7.43999 15.11 6.44999C14.19 5.46999 13.08 4.97999 11.77 4.97999H5.2V14.77Z" fill="white"/>
<path d="M91.0498 2.4C91.0498 1.74 91.2898 1.18 91.7798 0.71C92.2598 0.24 92.8498 0 93.5298 0C94.1598 0 94.6998 0.24 95.1598 0.71C95.6198 1.18 95.8498 1.75 95.8498 2.4V23.56H100.81C101.73 23.56 102.44 23.82 102.95 24.33C103.46 24.84 103.72 25.45 103.72 26.16C103.72 26.87 103.46 27.47 102.95 27.97C102.44 28.47 101.72 28.72 100.81 28.72H93.5298C92.8198 28.72 92.2298 28.5 91.7598 28.05C91.2898 27.6 91.0498 27.03 91.0498 26.32V2.4Z" fill="white"/>
<path d="M85.33 8.16C85.33 9.56 84.19 10.7 82.79 10.7C81.39 10.7 80.25 9.56 80.25 8.16C80.25 6.76 81.39 5.62 82.79 5.62C84.19 5.62 85.33 6.75 85.33 8.16Z" fill="#839DD1"/>
<path d="M5.20977 26.02C5.20977 27.46 4.04977 28.62 2.60977 28.62C1.16977 28.62 0.00976562 27.46 0.00976562 26.02C0.00976562 24.58 1.16977 23.42 2.60977 23.42C4.03977 23.42 5.20977 24.58 5.20977 26.02Z" fill="#927AB6"/>
<path d="M109.31 27.91C108.32 28.9 106.71 28.9 105.71 27.91C104.72 26.92 104.72 25.31 105.71 24.31C106.7 23.32 108.31 23.32 109.31 24.31C110.3 25.31 110.3 26.92 109.31 27.91Z" fill="#7BC5EF"/>
<path d="M53.2001 11.15C53.2001 12.55 52.0601 13.69 50.6601 13.69C49.2601 13.69 48.1201 12.55 48.1201 11.15C48.1201 9.74999 49.2601 8.60999 50.6601 8.60999C52.0601 8.60999 53.2001 9.74999 53.2001 11.15Z" fill="#7372B3"/>
<path d="M53.3597 16.96C53.3597 16.93 53.3697 16.9 53.3797 16.87C53.3697 16.87 53.3597 16.87 53.3597 16.87C53.2997 15.57 52.4497 14.31 50.7697 14.33C49.2097 14.31 48.3597 15.39 48.1997 16.59C47.9897 17.66 47.5997 18.63 47.0497 19.5C46.1497 20.9 44.9797 21.96 43.5497 22.68C42.1197 23.4 40.6197 23.76 39.0497 23.76C37.5297 23.76 36.0597 23.4 34.6497 22.68C33.2297 21.96 32.0797 20.9 31.1897 19.5C30.2997 18.1 29.8497 16.41 29.8497 14.45C29.8497 12.48 30.2997 10.79 31.1897 9.37999C32.0797 7.95999 33.2297 6.89999 34.6497 6.19999C36.0697 5.48999 37.5297 5.13999 39.0497 5.13999C40.6197 5.13999 42.1197 5.48999 43.5497 6.19999C44.4097 6.62999 45.1797 7.17999 45.8497 7.86999H45.8697C46.2897 8.34999 46.8997 8.65999 47.7297 8.64999C50.3297 8.68999 50.8797 5.50999 49.4097 4.14999C49.3997 4.13999 49.3797 4.12999 49.3697 4.11999C49.3197 4.07999 49.2797 4.02999 49.2297 3.99999C48.3597 3.18999 47.3997 2.49999 46.3297 1.93999C44.1797 0.809988 41.8997 0.179988 39.4897 0.0499878C36.9697 0.0499878 34.5797 0.599988 32.3197 1.69999C30.0497 2.79999 28.2097 4.43999 26.7997 6.60999C25.3897 8.78999 24.6797 11.41 24.6797 14.47C24.6797 17.54 25.3897 20.16 26.7997 22.33C28.2197 24.51 30.0597 26.12 32.3197 27.19C34.5897 28.25 36.9797 28.73 39.4897 28.62C41.8697 28.62 44.1397 28.07 46.2897 26.97C48.4397 25.87 50.1897 24.25 51.5397 22.12C52.2897 20.93 52.8197 19.61 53.1597 18.16C53.2897 17.77 53.3697 17.37 53.3597 16.96Z" fill="white"/>
<path d="M86.3803 13.54C86.3803 13.51 86.3803 13.48 86.3703 13.45C86.3603 13.45 86.3503 13.45 86.3503 13.46C85.9903 12.21 84.8603 11.18 83.2403 11.6C81.7203 11.94 81.1503 13.2 81.2703 14.4C81.3103 15.49 81.1703 16.53 80.8303 17.49C80.2803 19.06 79.3903 20.37 78.1703 21.4C76.9503 22.44 75.5803 23.14 74.0503 23.5C72.5703 23.86 71.0603 23.85 69.5203 23.48C67.9803 23.11 66.6103 22.35 65.4103 21.19C64.2203 20.04 63.3903 18.5 62.9303 16.59C62.4703 14.68 62.5103 12.93 63.0403 11.35C63.5803 9.77 64.4503 8.46 65.6603 7.45C66.8703 6.43 68.2203 5.74 69.6903 5.39C71.2203 5.02 72.7603 5.02 74.3203 5.37C75.2603 5.58 76.1303 5.94 76.9403 6.45L76.9503 6.44C77.4703 6.81 78.1403 6.97 78.9403 6.76C81.4803 6.19 81.2703 2.97 79.5203 1.99C79.5103 1.98 79.4903 1.97 79.4803 1.97C79.4303 1.94 79.3803 1.91 79.3203 1.88C78.2903 1.29 77.1903 0.849998 76.0103 0.549998C73.6603 -0.0400023 71.2903 -0.120002 68.9203 0.309998C66.4703 0.899998 64.2803 1.99 62.3303 3.59C60.3803 5.19 58.9803 7.21 58.1103 9.66C57.2403 12.11 57.1703 14.82 57.8803 17.8C58.6003 20.78 59.9003 23.16 61.7803 24.95C63.6703 26.73 65.8303 27.88 68.2803 28.38C70.7303 28.88 73.1703 28.79 75.5903 28.1C77.9103 27.54 79.9803 26.48 81.8203 24.91C83.6503 23.34 84.9703 21.36 85.7903 18.96C86.2403 17.63 86.4503 16.22 86.4403 14.74C86.4903 14.34 86.4803 13.93 86.3803 13.54Z" fill="white"/>
</svg>
