<svg width="111" height="29" viewBox="0 0 111 29" fill="none" xmlns="http://www.w3.org/2000/svg">
<path d="M0.802918 0.903283C1.20438 0.301094 1.90693 0 2.70985 0H11.843C13.6496 0 15.2554 0.401459 16.6606 1.20438C18.0657 2.0073 19.27 3.11131 20.1733 4.61678C21.0766 6.12225 21.4781 7.92882 21.4781 10.0365C21.4781 12.0438 20.9762 13.75 20.1733 15.2554C19.27 16.7609 18.0657 17.8649 16.5602 18.5675C15.0547 19.27 13.4489 19.6715 11.7427 19.6715H5.21897V19.1697C5.21897 20.6751 5.01824 21.4781 4.51642 21.9799C4.01459 22.4817 3.4124 22.6824 2.70985 22.6824C2.0073 22.6824 1.40511 22.4817 0.802918 21.8795C0.301094 21.4781 0 20.8759 0 20.073V2.70985C0 2.0073 0.20073 1.40511 0.802918 0.903283ZM5.21897 14.854H11.843C12.7463 14.854 13.5492 14.6533 14.2518 14.1514C14.9544 13.6496 15.5565 13.1478 15.958 12.3449C16.3595 11.6423 16.5602 10.8394 16.5602 10.0365C16.5602 8.63137 16.0584 7.42699 15.1551 6.42335C14.2518 5.4197 13.1478 4.91787 11.843 4.91787H5.21897V14.854Z" fill="#252528"/>
<path d="M91.4324 2.40876C91.4324 1.7062 91.6332 1.20438 92.135 0.702554C92.6368 0.20073 93.239 0 93.9416 0C94.5437 0 95.1459 0.20073 95.5474 0.702554C95.9488 1.20438 96.2499 1.7062 96.2499 2.40876V23.6861H101.268C102.171 23.6861 102.874 23.9872 103.376 24.489C103.878 24.9908 104.179 25.593 104.179 26.2956C104.179 26.9981 103.878 27.6003 103.376 28.1021C102.874 28.604 102.171 28.9051 101.268 28.9051H93.9416C93.239 28.9051 92.6368 28.7043 92.135 28.2025C91.6332 27.7007 91.4324 27.1989 91.4324 26.4963V2.40876Z" fill="#252528"/>
<path d="M85.6113 8.33022C85.6113 9.73533 84.5073 10.9397 83.0018 10.9397C81.4963 10.9397 80.3923 9.83569 80.3923 8.33022C80.3923 6.82475 81.4963 5.72073 83.0018 5.72073C84.5073 5.72073 85.6113 6.92511 85.6113 8.33022Z" fill="#839DD1"/>
<path d="M5.21897 26.0949C5.21897 27.5 4.01459 28.7044 2.60948 28.7044C1.20438 28.7044 0 27.6003 0 26.0949C0 24.6898 1.20438 23.4854 2.60948 23.4854C4.01459 23.4854 5.21897 24.6898 5.21897 26.0949Z" fill="#927AB6"/>
<path d="M109.297 28.0018C108.294 29.0055 106.688 29.0055 105.684 28.0018C104.681 26.9982 104.681 25.3923 105.684 24.3887C106.688 23.385 108.294 23.385 109.297 24.3887C110.301 25.3923 110.301 26.9982 109.297 28.0018Z" fill="#7BC5EF"/>
<path d="M53.394 11.2408C53.394 12.6459 52.29 13.8503 50.8849 13.8503C49.4798 13.8503 48.3758 12.7463 48.3758 11.2408C48.3758 9.73536 49.4798 8.63135 50.8849 8.63135C52.29 8.63135 53.394 9.83572 53.394 11.2408Z" fill="#7372B3"/>
<path d="M53.5948 17.062C53.5948 16.9616 53.5948 16.9616 53.5948 17.062C53.5948 16.9616 53.5948 16.9616 53.5948 17.062C53.4945 15.6569 52.6916 14.3521 50.9853 14.4525C49.3795 14.4525 48.5766 15.5565 48.3759 16.7609C48.1751 17.8649 47.7737 18.7682 47.1715 19.6715C46.2682 21.0766 45.0638 22.1806 43.6587 22.8831C42.2536 23.5857 40.7481 23.9872 39.1423 23.9872C37.6368 23.9872 36.1314 23.5857 34.7263 22.8831C33.3211 22.1806 32.1168 21.0766 31.2135 19.6715C30.3102 18.2664 29.9087 16.5602 29.9087 14.5529C29.9087 12.5456 30.4106 10.8394 31.2135 9.43427C32.0164 8.02916 33.2208 6.92515 34.7263 6.22259C36.1314 5.52004 37.6368 5.11858 39.1423 5.11858C40.7481 5.11858 42.2536 5.41968 43.6587 6.22259C44.562 6.62405 45.2646 7.22624 45.9671 7.9288C46.3686 8.43062 46.9708 8.73171 47.874 8.73171C50.4835 8.73171 51.0857 5.52004 49.5802 4.2153L49.4799 4.11493C48.5766 3.31202 47.6733 2.60946 46.5693 2.00727C44.3613 0.90326 42.1532 0.200707 39.7445 0.100342C37.2354 0.100342 34.8266 0.702531 32.5182 1.70618C30.2098 2.70983 28.4033 4.41603 26.9982 6.62405C25.5931 8.83208 24.8905 11.4416 24.8905 14.5529C24.8905 17.6642 25.5931 20.2737 26.9982 22.4817C28.4033 24.6897 30.3102 26.2956 32.5182 27.3996C34.8266 28.5036 37.2354 28.905 39.7445 28.8047C42.1532 28.8047 44.4616 28.3028 46.5693 27.1988C48.677 26.0948 50.4835 24.489 51.7883 22.281C52.5912 21.0766 53.093 19.7718 53.3941 18.2664C53.4945 17.8649 53.5948 17.4635 53.5948 17.062Z" fill="#252528"/>
<path d="M86.7151 13.6497C86.7151 13.5493 86.7151 13.5493 86.7151 13.6497C86.7151 13.5493 86.7151 13.5493 86.7151 13.6497C86.3137 12.3449 85.2097 11.2409 83.6038 11.7427C82.0984 12.0438 81.4962 13.3486 81.5965 14.5529C81.5965 15.657 81.4962 16.6606 81.1951 17.6643C80.5929 19.2701 79.79 20.5748 78.4852 21.5785C77.1805 22.5821 75.8757 23.2847 74.3703 23.6861C72.8648 24.0876 71.3593 24.0876 69.8539 23.6861C68.3484 23.2847 66.9433 22.5821 65.7389 21.3778C64.5345 20.1734 63.7316 18.6679 63.2298 16.761C62.728 14.854 62.8283 13.0475 63.3302 11.542C63.832 9.93617 64.7353 8.63143 65.9396 7.62778C67.144 6.62413 68.5491 5.92158 69.9542 5.52012C71.4597 5.11866 73.0655 5.11866 74.571 5.52012C75.5747 5.62048 76.4779 6.02194 77.2809 6.52377C77.7827 6.92522 78.4852 7.02559 79.2882 6.82486C81.7973 6.22267 81.5965 3.011 79.8903 2.00735C79.79 2.00735 79.79 1.90698 79.6896 1.90698C78.686 1.3048 77.582 0.903337 76.3776 0.602242C73.9688 5.33387e-05 71.5601 -0.100311 69.2517 0.301148C66.8429 0.903337 64.5345 2.00735 62.6276 3.61319C60.6203 5.21902 59.2152 7.22632 58.4123 9.73544C57.509 12.1442 57.4086 14.9544 58.2115 17.865C58.9141 20.8759 60.2188 23.2847 62.1258 25.0913C64.0327 26.8978 66.2407 28.0018 68.6495 28.5037C71.0582 29.0055 73.5674 28.9051 75.9761 28.2026C78.2845 27.6004 80.3922 26.5967 82.1987 24.9909C84.0053 23.385 85.4104 21.3778 86.2133 18.969C86.6148 17.6643 86.9159 16.2591 86.9159 14.7537C86.9159 14.4526 86.9159 13.9508 86.7151 13.6497Z" fill="#252528"/>
</svg>
