<svg width="15" height="8" viewBox="0 0 15 8" fill="none" xmlns="http://www.w3.org/2000/svg">
<path d="M15.0002 1.68896C14.4928 1.68896 13.8464 1.68896 13.332 1.68896C13.4571 2.03651 13.5753 2.38405 13.7004 2.7316C14.0897 2.7316 14.611 2.7316 15.0002 2.7316" fill="#C4C4C4"/>
<path d="M12.8457 6.09585H15.0005V5.58844V5.05322H13.9161" fill="#C4C4C4"/>
<path d="M7.49305 1.68896H0V2.21028V2.7316H7.12465" fill="#C4C4C4"/>
<path d="M7.72243 5.08105H0V5.60237V6.12369H7.34013" fill="#C4C4C4"/>
<path d="M8.57812 3.81616C8.57812 4.80319 9.37748 5.60254 10.3645 5.60254C11.3515 5.60254 12.1509 4.80319 12.1509 3.81616C12.1509 2.82914 11.3515 2.02979 10.3645 2.02979C9.37748 2.02979 8.57812 2.82914 8.57812 3.81616ZM11.1013 3.81616C11.1013 4.22626 10.7677 4.55991 10.3576 4.55991C9.94745 4.55991 9.61381 4.22626 9.61381 3.81616C9.61381 3.40606 9.94745 3.07242 10.3576 3.07242C10.7677 3.07242 11.1013 3.40606 11.1013 3.81616Z" fill="#C4C4C4"/>
<path d="M10.3632 0C8.21537 0 6.4707 1.74467 6.4707 3.89249C6.4707 6.04032 8.21537 7.78499 10.3632 7.78499C12.511 7.78499 14.2557 6.04032 14.2557 3.89249C14.2557 1.74467 12.5041 0 10.3632 0ZM10.3632 6.7354C8.79925 6.7354 7.52724 5.46339 7.52724 3.89944C7.52724 2.3355 8.79925 1.06348 10.3632 1.06348C11.9271 1.06348 13.1992 2.3355 13.1992 3.89944C13.1992 5.46339 11.9341 6.7354 10.3632 6.7354Z" fill="#C4C4C4"/>
</svg>
