<svg width="15" height="15" viewBox="0 0 15 15" fill="none" xmlns="http://www.w3.org/2000/svg">
<path d="M5.85274 5.79648L5.29029 6.64828L4.85132 5.98343C4.10594 4.85467 2.85308 4.18075 1.5 4.18075L1.5 3.24252C3.16948 3.24252 4.7152 4.07391 5.63481 5.46661L5.85274 5.79648ZM11.2871 13.5L13.5 11.2884L11.2871 9.07672L10.6233 9.7402L11.7029 10.8192L11.3303 10.8192C9.9771 10.8192 8.72424 10.1453 7.97895 9.01657L7.53989 8.35171L6.97754 9.20343L7.19537 9.53339C8.11498 10.926 9.6607 11.7575 11.3303 11.7575L11.7029 11.7575L10.6233 12.8365L11.2871 13.5ZM5.6349 9.53338L7.97895 5.98343C8.72424 4.85467 9.9771 4.18076 11.3303 4.18076L11.7029 4.18076L10.6233 5.2598L11.2871 5.92328L13.5 3.71164L11.2871 1.5L10.6233 2.16348L11.7029 3.24252L11.3303 3.24252C9.6607 3.24252 8.11498 4.07391 7.19537 5.46661L4.85132 9.01657C4.10594 10.1453 2.85308 10.8192 1.5 10.8192L1.5 11.7575C3.16948 11.7575 4.71529 10.9261 5.6349 9.53338Z" fill="#C4C4C4"/>
</svg>
