<svg width="15" height="15" viewBox="0 0 15 15" fill="none" xmlns="http://www.w3.org/2000/svg">
<g clip-path="url(#clip0_137:1967)">
<path d="M14.9425 13.5834L13.9127 10.5866C14.408 9.58536 14.6699 8.46942 14.6717 7.34653C14.6747 5.41288 13.9265 3.5845 12.565 2.19829C11.2032 0.811816 9.38862 0.0314073 7.45547 0.000733578C6.44265 -0.0155262 5.45986 0.171095 4.53291 0.554795C3.63886 0.924902 2.83709 1.461 2.1499 2.14819C1.46269 2.83538 0.926585 3.63714 0.556508 4.53119C0.172807 5.45814 -0.0136088 6.44143 0.0024166 7.45375C0.0330318 9.3869 0.81347 11.2015 2.19994 12.5633C3.58346 13.9222 5.40712 14.6701 7.33661 14.6701C7.34039 14.6701 7.34438 14.6701 7.34816 14.6701C8.47105 14.6683 9.58699 14.4064 10.5882 13.9111L13.5851 14.9408C13.7003 14.9804 13.8184 14.9997 13.9353 14.9997C14.2128 14.9997 14.4828 14.8907 14.6876 14.6859C14.9785 14.395 15.0762 13.9726 14.9425 13.5834ZM14.0587 14.0571C14.0292 14.0866 13.966 14.1313 13.874 14.0998L10.6984 13.0086C10.6515 12.9925 10.6026 12.9844 10.5539 12.9844C10.4822 12.9844 10.4107 13.0018 10.346 13.0361C9.4282 13.5216 8.3911 13.7791 7.34675 13.7807C3.84431 13.7863 0.947093 10.9415 0.891605 7.43966C0.863685 5.67778 1.53388 4.0219 2.77873 2.77705C4.02358 1.53222 5.67897 0.862148 7.44135 0.890009C10.9432 0.945526 13.7878 3.84131 13.7823 7.34515C13.7807 8.38952 13.5232 9.42663 13.0377 10.3444C12.9802 10.453 12.9703 10.5806 13.0102 10.6968L14.1014 13.8724C14.133 13.9644 14.0882 14.0276 14.0587 14.0571Z" fill="#C4C4C4"/>
<path d="M7.26291 10.6273C7.03032 10.6273 6.80749 10.8318 6.81825 11.072C6.82903 11.3129 7.01363 11.5167 7.26291 11.5167C7.4955 11.5167 7.71833 11.3121 7.70758 11.072C7.6968 10.8311 7.5122 10.6273 7.26291 10.6273Z" fill="#C4C4C4"/>
<path d="M7.26313 3.74048C6.04324 3.74048 5.05078 4.73294 5.05078 5.95283C5.05078 6.19839 5.24988 6.3975 5.49545 6.3975C5.74101 6.3975 5.94012 6.19839 5.94012 5.95283C5.94012 5.22334 6.53364 4.62981 7.26313 4.62981C7.99262 4.62981 8.58614 5.22334 8.58614 5.95283C8.58614 6.68232 7.99262 7.27584 7.26313 7.27584C7.01756 7.27584 6.81846 7.47494 6.81846 7.72051V9.53413C6.81846 9.7797 7.01756 9.9788 7.26313 9.9788C7.5087 9.9788 7.7078 9.77972 7.7078 9.5341V8.12026C8.71528 7.91387 9.47548 7.02046 9.47548 5.95283C9.47548 4.73294 8.48302 3.74048 7.26313 3.74048Z" fill="#C4C4C4"/>
</g>
<defs>
<clipPath id="clip0_137:1967">
<rect width="15" height="15" fill="white"/>
</clipPath>
</defs>
</svg>
