<svg width="15" height="15" viewBox="0 0 15 15" fill="none" xmlns="http://www.w3.org/2000/svg">
<path d="M15 10.1514C15 7.96497 13.5268 6.05473 11.4494 5.47909C11.3188 2.43576 8.80245 0 5.72754 0C2.56931 0 0 2.56931 0 5.72754C0 6.75682 0.273972 7.75898 0.79422 8.6388L0.0210571 11.4339L2.81628 10.6609C3.62503 11.1391 4.53735 11.4085 5.47897 11.4491C6.0545 13.5267 7.96486 15 10.1514 15C11.0241 15 11.8728 14.7676 12.6185 14.3259L14.9788 14.9788L14.3259 12.6185C14.7676 11.8728 15 11.0241 15 10.1514ZM2.95498 9.71054L1.28162 10.1735L1.74454 8.5001L1.63902 8.33508C1.14178 7.55711 0.878906 6.65543 0.878906 5.72754C0.878906 3.05397 3.05397 0.878906 5.72754 0.878906C8.40111 0.878906 10.5762 3.05397 10.5762 5.72754C10.5762 8.40111 8.40111 10.5762 5.72754 10.5762C4.79965 10.5762 3.89809 10.3133 3.12 9.81606L2.95498 9.71054ZM13.7184 13.7184L12.4767 13.3748L12.3109 13.4827C11.6681 13.9003 10.9212 14.1211 10.1514 14.1211C8.43292 14.1211 6.92287 13.01 6.38786 11.4167C9.01932 11.1134 11.1134 9.01932 11.4169 6.38775C13.01 6.92287 14.1211 8.43292 14.1211 10.1514C14.1211 10.9212 13.9003 11.6681 13.4827 12.3109L13.3748 12.4767L13.7184 13.7184Z" fill="#7FA1F8"/>
<path d="M5.28809 7.93945H6.16699V8.81836H5.28809V7.93945Z" fill="#7FA1F8"/>
<path d="M6.60645 4.39453C6.60645 4.64413 6.50482 4.8745 6.32034 5.0433L5.28809 5.98812V7.06055H6.16699V6.37516L6.91372 5.69172C7.27695 5.35927 7.48535 4.88651 7.48535 4.39453C7.48535 3.42522 6.69685 2.63672 5.72754 2.63672C4.75822 2.63672 3.96973 3.42522 3.96973 4.39453H4.84863C4.84863 3.90987 5.24288 3.51562 5.72754 3.51562C6.2122 3.51562 6.60645 3.90987 6.60645 4.39453Z" fill="#7FA1F8"/>
</svg>
