<svg width="15" height="15" viewBox="0 0 15 15" fill="none" xmlns="http://www.w3.org/2000/svg">
<g clip-path="url(#clip0_137:1964)">
<path d="M6.87482 14.3651C3.08432 14.3651 0 11.2809 0 7.49043C0 3.69992 3.08432 0.615601 6.87482 0.615601C8.19291 0.615601 9.4753 0.991184 10.5834 1.70241C10.8009 1.84248 10.8647 2.13247 10.7246 2.35059C10.5841 2.5687 10.2947 2.63176 10.0766 2.4918C9.12031 1.87739 8.0129 1.55307 6.87482 1.55307C3.60111 1.55307 0.937471 4.21672 0.937471 7.49043C0.937471 10.764 3.60111 13.4277 6.87482 13.4277C10.1484 13.4277 12.8121 10.764 12.8121 7.49043C12.8121 7.29474 12.8027 7.101 12.7846 6.91046C12.7596 6.65229 12.9484 6.42353 13.2058 6.39858C13.4646 6.37478 13.6927 6.56234 13.7177 6.81982C13.7389 7.04046 13.7495 7.26418 13.7495 7.49043C13.7495 11.2809 10.6653 14.3651 6.87482 14.3651Z" fill="#C4C4C4"/>
<path d="M7.65592 9.05303C7.53599 9.05303 7.41594 9.00737 7.32474 8.91559L4.51232 6.10318C4.32923 5.91997 4.32923 5.62312 4.51232 5.44002C4.69542 5.25692 4.99228 5.25692 5.17537 5.44002L7.65661 7.92125L14.1994 1.37829C14.3827 1.19519 14.6795 1.19519 14.8626 1.37829C15.0457 1.56139 15.0457 1.85824 14.8626 2.04134L7.98779 8.91616C7.89589 9.00737 7.77596 9.05303 7.65592 9.05303Z" fill="#C4C4C4"/>
</g>
<defs>
<clipPath id="clip0_137:1964">
<rect width="15" height="15" fill="white"/>
</clipPath>
</defs>
</svg>
