<svg width="15" height="15" viewBox="0 0 15 15" fill="none" xmlns="http://www.w3.org/2000/svg">
<path d="M10.6556 0H4.3445C3.7405 0 3.25293 0.48976 3.25293 1.09267V13.9084C3.25293 14.5108 3.7405 15 4.3445 15H10.6556C11.2585 15 11.7472 14.5108 11.7472 13.9084V1.09267C11.7472 0.48976 11.2585 0 10.6556 0ZM5.94278 0.663581H9.05845C9.13716 0.663581 9.20111 0.781102 9.20111 0.9265C9.20111 1.0719 9.13716 1.18996 9.05845 1.18996H5.94278C5.86353 1.18996 5.80067 1.0719 5.80067 0.9265C5.80067 0.781102 5.86353 0.663581 5.94278 0.663581ZM7.50062 13.9215C7.11635 13.9215 6.80369 13.6089 6.80369 13.2241C6.80369 12.8393 7.11635 12.5277 7.50062 12.5277C7.88379 12.5277 8.19645 12.8393 8.19645 13.2241C8.19645 13.6089 7.88379 13.9215 7.50062 13.9215ZM10.9295 11.5334H4.0712V1.84371H10.9295V11.5334Z" fill="#7FA1F8"/>
</svg>
