<svg width="15" height="15" viewBox="0 0 15 15" fill="none" xmlns="http://www.w3.org/2000/svg">
<path d="M13.5565 0H1.44307C0.773579 0 0.232422 0.536879 0.232422 1.19354V13.8081C0.232422 14.4658 0.773579 15 1.44307 15H13.5565C14.2239 15 14.7683 14.4663 14.7683 13.8081V1.19354C14.7683 0.536879 14.2239 0 13.5565 0ZM4.63226 14.1027H2.16765C1.5789 14.1027 1.10137 13.6337 1.10137 13.053V10.6007H4.63226V14.1027ZM4.63226 9.37239H1.10137V5.82974H4.63226V9.37239ZM4.63226 4.60144H1.10137V1.94913C1.10137 1.37054 1.57943 0.899433 2.16765 0.899433H4.63173V4.60144H4.63226ZM9.40215 14.1027H5.86003V10.6007H9.40215V14.1027ZM9.40215 9.37239H5.86003V5.82974H9.40215V9.37239ZM9.40215 4.60144H5.86003V0.899433H9.40215V4.60144ZM13.8977 13.053C13.8977 13.6337 13.4191 14.1027 12.8325 14.1027H10.631V10.6007H13.8977V13.053ZM13.8977 9.37239H10.631V5.82974H13.8977V9.37239ZM13.8977 4.60144H10.631V0.899433H12.8325C13.4197 0.899433 13.8977 1.37054 13.8977 1.94913V4.60144Z" fill="#C4C4C4"/>
</svg>
