<svg width="15" height="15" viewBox="0 0 15 15" fill="none" xmlns="http://www.w3.org/2000/svg">
<path d="M13.3535 6.03613H6.21937C6.01731 6.03613 5.85352 6.19992 5.85352 6.40199C5.85352 6.60405 6.01731 6.76784 6.21937 6.76784H13.3535C13.5556 6.76784 13.7194 6.60405 13.7194 6.40199C13.7194 6.19992 13.5556 6.03613 13.3535 6.03613Z" fill="#C4C4C4"/>
<path d="M6.21937 8.96413H10.0608C10.2629 8.96413 10.4267 8.80034 10.4267 8.59827C10.4267 8.39621 10.2629 8.23242 10.0608 8.23242H6.21937C6.01731 8.23242 5.85352 8.39621 5.85352 8.59827C5.85352 8.80034 6.01731 8.96413 6.21937 8.96413Z" fill="#C4C4C4"/>
<path d="M6.21937 1.28054H13.3535C13.5556 1.28054 13.7194 1.11674 13.7194 0.914683C13.7194 0.712621 13.5556 0.548828 13.3535 0.548828H6.21937C6.01731 0.548828 5.85352 0.712621 5.85352 0.914683C5.85352 1.11674 6.01731 1.28054 6.21937 1.28054Z" fill="#C4C4C4"/>
<path d="M6.21937 3.47585H10.0608C10.2629 3.47585 10.4267 3.31206 10.4267 3.11C10.4267 2.90793 10.2629 2.74414 10.0608 2.74414H6.21937C6.01731 2.74414 5.85352 2.90793 5.85352 3.11C5.85352 3.31206 6.01731 3.47585 6.21937 3.47585Z" fill="#C4C4C4"/>
<path d="M13.3535 11.5244H6.21937C6.01731 11.5244 5.85352 11.6882 5.85352 11.8903C5.85352 12.0923 6.01731 12.2561 6.21937 12.2561H13.3535C13.5556 12.2561 13.7194 12.0923 13.7194 11.8903C13.7194 11.6882 13.5556 11.5244 13.3535 11.5244Z" fill="#C4C4C4"/>
<path d="M10.0608 13.7197H6.21937C6.01731 13.7197 5.85352 13.8835 5.85352 14.0856C5.85352 14.2876 6.01731 14.4514 6.21937 14.4514H10.0608C10.2629 14.4514 10.4267 14.2876 10.4267 14.0856C10.4267 13.8835 10.2629 13.7197 10.0608 13.7197Z" fill="#C4C4C4"/>
<circle cx="1" cy="4" r="0.75" stroke="#C4C4C4" stroke-width="0.5"/>
<circle cx="1" cy="1" r="0.75" stroke="#C4C4C4" stroke-width="0.5"/>
<circle cx="1" cy="7" r="0.75" stroke="#C4C4C4" stroke-width="0.5"/>
</svg>
