<svg width="15" height="15" viewBox="0 0 15 15" fill="none" xmlns="http://www.w3.org/2000/svg">
<g clip-path="url(#clip0_137:3612)">
<path d="M5.44624 5.3706L4.74357 6.43536L4.19517 5.60429C3.26397 4.19334 1.69876 3.35094 0.00835213 3.35094L0.00835218 2.17815C2.09404 2.17815 4.02511 3.21739 5.17399 4.95827L5.44624 5.3706ZM12.2354 15L15 12.2354L12.2355 9.4709L11.4061 10.3003L12.7549 11.6491L12.2894 11.6491C10.5988 11.6491 9.03362 10.8067 8.10253 9.39571L7.55401 8.56464L6.85146 9.62929L7.1236 10.0417C8.27247 11.7825 10.2036 12.8218 12.2894 12.8218L12.7549 12.8218L11.4061 14.1706L12.2354 15ZM5.1741 10.0417L8.10253 5.60429C9.03362 4.19334 10.5988 3.35094 12.2894 3.35094L12.7549 3.35094L11.4061 4.69974L12.2355 5.5291L15 2.76455L12.2355 -1.20842e-07L11.4061 0.829353L12.7549 2.17815L12.2894 2.17815C10.2036 2.17815 8.27248 3.21739 7.1236 4.95827L4.19517 9.39571C3.26397 10.8067 1.69876 11.6491 0.00835177 11.6491L0.00835172 12.8218C2.09404 12.8218 4.02523 11.7826 5.1741 10.0417Z" fill="#C4C4C4"/>
</g>
<defs>
<clipPath id="clip0_137:3612">
<rect width="15" height="15" fill="white" transform="translate(15) rotate(90)"/>
</clipPath>
</defs>
</svg>
